<svg fill="none" height="96" viewBox="0 0 144 96" width="144" xmlns="http://www.w3.org/2000/svg" xmlns:xlink="http://www.w3.org/1999/xlink"><clipPath id="a"><path d="m0 0h144v96h-144z"/></clipPath><mask id="b" height="41" maskUnits="userSpaceOnUse" width="41" x="24" y="17"><circle cx="44.3077" cy="37.709" fill="#fff" r="19.864" transform="matrix(.70710678 -.70710678 .70710678 .70710678 -13.686865 42.374986)"/></mask><g clip-path="url(#a)"><g fill="#ffd9ab" opacity=".3"><rect height="67.3498" rx="12.7195" transform="matrix(.402805 -.915286 -.915286 -.402805 72.1968 91.2427)" width="67.3498"/><rect height="28.2692" rx="7.72568" transform="matrix(.97532 -.220794 -.220795 -.97532 113.465 75.8862)" width="28.2692"/><rect height="43.8032" rx="10.8876" transform="matrix(.872632 -.488378 -.488378 -.872632 96.9044 63.6035)" width="43.8032"/><rect height="6.8388" rx="1.96527" transform="matrix(.91699 -.398909 -.398909 -.91699 135.417 7.86084)" width="6.8388"/><rect height="4.66832" rx="1.96527" transform="matrix(.186209 -.98251 -.98251 -.186209 18.5593 12.6006)" width="4.66832"/><rect height="4.66832" rx="1.96527" transform="matrix(.159596 -.987182 -.987182 -.159596 140.69 83.9478)" width="4.66832"/><rect height="7.52487" rx="2.28108" transform="matrix(.913184 -.407548 -.407548 -.913184 12.5568 86.9976)" width="7.52487"/></g><path d="m33.4375 44.6057c0-7.232 0-10.848 2.1685-13.157.1145-.122.2329-.2404.3549-.3549 2.309-2.1685 5.925-2.1685 13.157-2.1685h67.2021c7.232 0 10.848 0 13.157 2.1685.122.1145.24.2329.355.3549 2.168 2.309 2.168 5.925 2.168 13.157s0 10.848-2.168 13.157c-.115.122-.233.2404-.355.3549-2.309 2.1685-5.925 2.1685-13.157 2.1685h-67.2021c-7.232 0-10.848 0-13.157-2.1685-.122-.1145-.2404-.2329-.3549-.3549-2.1685-2.309-2.1685-5.925-2.1685-13.157z" fill="#fff" stroke="#3c5d87" stroke-width="1.5"/><path clip-rule="evenodd" d="m45.3977 42.8426c-.0133.1409-.0133.3081-.0133.6425v2.24c0 .3344 0 .5016.0133.6425.1356 1.4337 1.2707 2.5688 2.7043 2.7043.1409.0133.3081.0133.6425.0133s.5016 0 .6425-.0133c1.4336-.1355 2.5687-1.2706 2.7042-2.7043.0134-.1409.0134-.3081.0134-.6425v-2.24c0-.3344 0-.5016-.0134-.6425-.1355-1.4336-1.2706-2.5687-2.7042-2.7043-.1409-.0133-.3081-.0133-.6425-.0133s-.5016 0-.6425.0133c-1.4336.1356-2.5687 1.2707-2.7043 2.7043zm50.7746 0c-.0133.1409-.0133.3081-.0133.6425v2.24c0 .3344 0 .5016.0133.6425.1356 1.4337 1.2707 2.5688 2.7043 2.7043.1409.0133.3081.0133.6425.0133s.5019 0 .6429-.0133c1.433-.1355 2.568-1.2706 2.704-2.7043.013-.1409.013-.3081.013-.6425v-2.24c0-.3344 0-.5016-.013-.6425-.136-1.4336-1.271-2.5687-2.704-2.7043-.141-.0133-.3085-.0133-.6429-.0133s-.5016 0-.6425.0133c-1.4336.1356-2.5687 1.2707-2.7043 2.7043zm-41.081-.1042c0-1.4433 1.1701-2.6134 2.6134-2.6134 1.4434 0 2.6134 1.1701 2.6134 2.6134v3.7334c0 1.4434-1.17 2.6134-2.6134 2.6134-1.4433 0-2.6134-1.17-2.6134-2.6134zm53.3877-2.6134c-1.443 0-2.613 1.1701-2.613 2.6134v3.7334c0 1.4434 1.17 2.6134 2.613 2.6134 1.444 0 2.614-1.17 2.614-2.6134v-3.7334c0-1.4433-1.17-2.6134-2.614-2.6134zm5.6 2.9867c0-1.6495 1.338-2.9867 2.987-2.9867 1.65 0 2.987 1.3372 2.987 2.9867v2.9868c0 1.6495-1.337 2.9867-2.987 2.9867-1.649 0-2.987-1.3372-2.987-2.9867zm-50.5517-1.1203c-.2224.545-.2224 1.2346-.2224 2.6137 0 1.3792 0 2.0687.2224 2.6137.3047.7467.8973 1.3393 1.6439 1.644.545.2224 1.2346.2224 2.6138.2224 1.3791 0 2.0687 0 2.6137-.2224.7467-.3047 1.3392-.8973 1.644-1.644.2224-.545.2224-1.2345.2224-2.6137 0-1.3791 0-2.0687-.2224-2.6137-.3048-.7467-.8973-1.3392-1.644-1.644-.545-.2224-1.2346-.2224-2.6137-.2224-1.3792 0-2.0688 0-2.6138.2224-.7466.3048-1.3392.8973-1.6439 1.644zm11.7245.0003c0-1.0309.8358-1.8667 1.8667-1.8667 1.031 0 1.8668.8358 1.8668 1.8667v5.2268c0 1.031-.8358 1.8667-1.8668 1.8667-1.0309 0-1.8667-.8357-1.8667-1.8667zm6.9426-.0003c-.2224.545-.2224 1.2346-.2224 2.6137 0 1.3792 0 2.0687.2224 2.6137.3048.7467.8973 1.3393 1.644 1.644.545.2224 1.2346.2224 2.6137.2224h2.2401c1.3791 0 2.0687 0 2.6137-.2224.7467-.3047 1.3392-.8973 1.644-1.644.2224-.545.2224-1.2345.2224-2.6137 0-1.3791 0-2.0687-.2224-2.6137-.3048-.7467-.8973-1.3392-1.644-1.644-.545-.2224-1.2346-.2224-2.6137-.2224h-2.2401c-1.3791 0-2.0687 0-2.6137.2224-.7467.3048-1.3392.8973-1.644 1.644z" fill="#3c5d87" fill-rule="evenodd"/><rect fill="#3c5d87" height="7.46686" opacity=".12" rx="3" width="38.8277" x="86.4521" y="57.2993"/><path d="m26.3263 55.7679c4.9856 4.9856 11.5198 7.4786 18.0542 7.4792" opacity=".15" stroke="#3c5d87" stroke-linecap="round" stroke-width="11.1755"/><path d="m58.8815 55.4541h4.47991v14.7837h-4.47991z" fill="#fffaed" stroke="#3c5d87" stroke-width="1.5" transform="matrix(.70710678 -.70710678 .70710678 .70710678 -21.965978 57.877638)"/><path d="m65.0795 58.4838c.6959-.6959 1.3472-1.4195 1.9538-2.1674.6268-.7727.9401-1.159 1.2499-1.9001.3702-.8856.5115-2.329.3201-3.2695-.1602-.7871-.4842-1.4-1.1322-2.6256l-12.3543 12.3543c1.2257.648 1.8385.972 2.6257 1.1322.9405.1914 2.3839.0501 3.2694-.3201.7412-.3098 1.1275-.6232 1.9002-1.25.7478-.6066 1.4715-1.2578 2.1674-1.9538z" fill="#fffaed" stroke="#3c5d87" stroke-width="1.5"/><circle cx="44.3107" cy="37.7144" fill="#fffaed" r="25.5355" stroke="#3c5d87" stroke-width="1.5" transform="matrix(.70710678 -.70710678 .70710678 .70710678 -13.689804 42.378688)"/><circle cx="44.3119" cy="37.7148" fill="#fff" r="19.8258" transform="matrix(.70710678 -.70710678 .70710678 .70710678 -13.689736 42.379654)"/><g mask="url(#b)"><circle cx="44.3098" cy="37.7095" fill="#fff4e6" r="19.9512" transform="matrix(.70710678 -.70710678 .70710678 .70710678 -13.686603 42.376617)"/><path d="m70.1411 43.8601c0-6.9225 0-10.3837-1.3852-13.0108-1.1285-2.1402-2.8776-3.8893-5.0178-5.0178-2.6271-1.3852-6.0883-1.3852-13.0108-1.3852h-1.4934c-6.9225 0-10.3837 0-13.0108 1.3852-2.1402 1.1285-3.8893 2.8776-5.0178 5.0178-1.3852 2.6271-1.3852 6.0883-1.3852 13.0108s0 10.3837 1.3852 13.0108c1.1285 2.1402 2.8776 3.8893 5.0178 5.0178 2.6271 1.3852 6.0883 1.3852 13.0108 1.3852h1.4934c6.9225 0 10.3837 0 13.0108-1.3852 2.1402-1.1285 3.8893-2.8776 5.0178-5.0178 1.3852-2.6271 1.3852-6.0883 1.3852-13.0108z" fill="#fff" stroke="#ffd9ab" stroke-width="2.5"/><path clip-rule="evenodd" d="m48.993 41.1141c.3215.3215.3215.8427 0 1.1641l-2.3283 2.3284 2.3283 2.3283c.3214.3215.3214.8426 0 1.1641-.3215.3215-.8427.3215-1.1641 0l-2.3283-2.3283-2.3282 2.3281c-.3214.3215-.8426.3215-1.1641 0-.3214-.3215-.3214-.8427 0-1.1641l2.3281-2.3281-2.3281-2.3281c-.3215-.3215-.3215-.8427 0-1.1641.3215-.3215.8427-.3215 1.1641 0l2.3282 2.3281 2.3283-2.3284c.3215-.3214.8426-.3214 1.1641 0z" fill="#ffd9ab" fill-rule="evenodd"/><ellipse cx="7.46686" cy="7.46686" rx="7.46686" ry="7.46686" stroke="#ffd9ab" stroke-width="2.08333" transform="matrix(-1 0 0 1 52.9674 37.1396)"/><path clip-rule="evenodd" d="m188.864 42.1798c0-.5016 0-.7524-.02-.9637-.203-2.1505-1.906-3.8531-4.056-4.0565-.212-.02-.462-.02-.964-.02s-.752 0-.964.02c-2.15.2034-3.853 1.906-4.056 4.0565-.02.2113-.02.4621-.02.9637v3.3601c0 .5016 0 .7524.02.9637.203 2.1504 1.906 3.8531 4.056 4.0564.212.02.462.02.964.02s.752 0 .964-.02c2.15-.2033 3.853-1.906 4.056-4.0564.02-.2113.02-.4621.02-.9637zm-75.042.0001c0-.5016 0-.7524-.02-.9637-.203-2.1505-1.906-3.8531-4.056-4.0565-.212-.0199-.462-.0199-.964-.0199-.501 0-.752 0-.964.0199-2.15.2034-3.853 1.906-4.056 4.0565-.02.2113-.02.4621-.02.9637v3.3601c0 .5016 0 .7524.02.9637.203 2.1505 1.906 3.8531 4.056 4.0564.212.02.463.02.964.02.502 0 .752 0 .964-.02 2.15-.2033 3.853-1.9059 4.056-4.0564.02-.2113.02-.4621.02-.9637zm56.562-5.0401c2.165 0 3.92 1.7551 3.92 3.9201v5.6001c0 2.165-1.755 3.9201-3.92 3.9201s-3.92-1.7551-3.92-3.9201v-5.6001c0-2.165 1.755-3.9201 3.92-3.9201zm-71.1221 3.9201c0-2.165-1.7551-3.9201-3.9201-3.9201-2.1651 0-3.9201 1.7551-3.9201 3.9201v5.6001c0 2.165 1.755 3.9201 3.9201 3.9201 2.165 0 3.9201-1.7551 3.9201-3.9201zm-16.8005-3.9201c2.4743 0 4.4801 2.0058 4.4801 4.4801v4.4801c0 2.4743-2.0058 4.4801-4.4801 4.4801s-4.4801-2.0058-4.4801-4.4801v-4.4801c0-2.4743 2.0058-4.4801 4.4801-4.4801zm-8.9602 6.7201c0-2.0687 0-3.1031-.3336-3.9205-.4571-1.1201-1.346-2.0089-2.466-2.466-.8175-.3336-1.8518-.3336-3.9206-.3336h-1.12c-2.0687 0-3.1031 0-3.9206.3336-1.12.4571-2.0088 1.3459-2.4659 2.466-.3337.8174-.3337 1.8518-.3337 3.9205 0 2.0688 0 3.1031.3337 3.9206.4571 1.12 1.3459 2.0089 2.4659 2.466.8175.3336 1.8519.3336 3.9206.3336h1.12c2.0688 0 3.1031 0 3.9206-.3336 1.12-.4571 2.0089-1.346 2.466-2.466.3336-.8175.3336-1.8518.3336-3.9206zm88.1488-3.9205c.333.8174.333 1.8518.333 3.9205 0 2.0688 0 3.1031-.333 3.9206-.457 1.12-1.346 2.0089-2.466 2.466-.818.3336-1.852.3336-3.921.3336-2.068 0-3.103 0-3.92-.3336-1.12-.4571-2.009-1.346-2.466-2.466-.334-.8175-.334-1.8518-.334-3.9206 0-2.0687 0-3.1031.334-3.9205.457-1.1201 1.346-2.0089 2.466-2.466.817-.3336 1.852-.3336 3.92-.3336 2.069 0 3.103 0 3.921.3336 1.12.4571 2.009 1.3459 2.466 2.466zm-17.587-.5596c0-1.2371-1.003-2.24-2.24-2.24s-2.24 1.0029-2.24 2.24v8.9602c0 1.2372 1.003 2.2401 2.24 2.2401s2.24-1.0029 2.24-2.24zm-9.294.5596c.334.8174.334 1.8518.334 3.9205 0 2.0688 0 3.1031-.334 3.9206-.457 1.12-1.346 2.0089-2.466 2.466-.817.3336-1.852.3336-3.92.3336h-3.36c-2.069 0-3.104 0-3.921-.3336-1.12-.4571-2.009-1.346-2.466-2.466-.334-.8175-.334-1.8518-.334-3.9206 0-2.0687 0-3.1031.334-3.9205.457-1.1201 1.346-2.0089 2.466-2.466.817-.3336 1.852-.3336 3.921-.3336h3.36c2.068 0 3.103 0 3.92.3336 1.12.4571 2.009 1.3459 2.466 2.466z" fill="#ffd9ab" fill-rule="evenodd"/></g><g stroke="#3c5d87"><circle cx="44.3129" cy="37.7148" r="19.864" stroke-width="1.5" transform="matrix(.70710678 -.70710678 .70710678 .70710678 -13.689443 42.380361)"/><rect fill="#fff" height="32.7033" rx="3.35264" stroke-width=".935555" transform="matrix(.70710678 -.70710678 .70710678 .70710678 -26.514257 65.273122)" width="8.06383" x="65.5345" y="64.6421"/><rect fill="#fffaed" height="32.7033" rx="3.35264" stroke-width="1.5" transform="matrix(.70710678 -.70710678 .70710678 .70710678 -26.514257 65.273122)" width="8.06383" x="65.5345" y="64.6421"/><path d="m67.4349 66.5405h8.06383v27.3274h-8.06383z" fill="#ffd9ab" stroke-linejoin="round" stroke-width="1.5" transform="matrix(.70710678 -.70710678 .70710678 .70710678 -27.300014 67.172936)"/><path d="m69.1862 69.5342 15.0195 15.0195" opacity=".14" stroke-linecap="round" stroke-width="8.3816"/><path d="m30.9441 23.3306c7.4802-7.4802 19.6079-7.4802 27.0881 0 1.1224 1.1223 2.0763 2.3494 2.8619 3.6496" opacity=".17" stroke-linecap="round" stroke-width="6.70528"/></g></g></svg>