<svg fill="none" height="96" viewBox="0 0 144 96" width="144" xmlns="http://www.w3.org/2000/svg"><g fill="#ffd9ab" opacity=".3"><rect height="62.3079" rx="11.7528" transform="matrix(-.567874 .823115 .823123 .567863 74.9877 3)" width="62.3076"/><rect height="31.6285" rx="7.13849" transform="matrix(-.975321 .220791 .220798 .97532 52.0496 12.2017)" width="31.6289"/><rect height="36.7916" rx="10.0601" transform="matrix(-.917968 -.396654 -.396664 .917964 77.5012 58.6519)" width="36.792"/><rect height="4.31883" rx="1.8159" transform="matrix(-.782529 .622614 .622625 .78252 15.3796 68.0239)" width="4.31885"/><rect height="4.31883" rx="1.8159" transform="matrix(-.782529 .622614 .622625 .78252 123.345 76.6113)" width="4.31885"/><rect height="4.31887" rx="1.8159" transform="matrix(-.186212 .98251 .982511 .186207 121.996 4.22705)" width="4.31881"/><rect height="4.31887" rx="1.8159" transform="matrix(-.159598 .987182 .987183 .159594 17.5962 6.68066)" width="4.31881"/><rect height="7.7146" rx="1.8159" transform="matrix(-.159598 .987182 .987183 .159594 13.2314 51.4609)" width="7.7145"/><rect height="6.9615" rx="2.1077" transform="matrix(-.913186 .407543 .407553 .913182 128.163 13.4282)" width="6.96157"/></g><rect fill="#f9fafb" height="74.8874" rx="8" stroke="#3c5d87" stroke-linejoin="round" stroke-miterlimit="10" stroke-width="1.5" transform="matrix(.98768834 -.15643447 .15643447 .98768834 -1.664026 5.788151)" width="55.7672" x="35.9407" y="13.4658"/><rect fill="#3c5d87" height="7.17007" opacity=".1" rx="3" transform="matrix(.9858625 -.16755634 .16755634 .9858625 -13.062168 9.975572)" width="47.0407" x="52.5837" y="82.3936"/><rect fill="#fff" height="74.8874" rx="8" width="55.7672" x="42.0293" y="7.96533"/><g stroke="#3c5d87" stroke-width="1.5"><rect height="74.8874" rx="8" stroke-linejoin="round" stroke-miterlimit="10" width="55.7672" x="42.0293" y="7.96533"/><path d="m51.5879 19.1187h30.7546" stroke-linecap="round"/><path d="m51.5879 38.2388h29.2815" stroke-linecap="round"/><path d="m51.5879 23.8989h35.1739" stroke-linecap="round"/><path d="m51.5879 43.019h35.9105" stroke-linecap="round"/><path d="m51.5879 28.6787h33.7008" stroke-linecap="round"/><path d="m51.5879 47.7988h32.2277" stroke-linecap="round"/><path d="m51.5879 33.459h32.2277" stroke-linecap="round"/><path d="m51.5879 52.5791h36.647" stroke-linecap="round"/><path d="m51.5879 57.3589h32.9643" stroke-linecap="round"/><path d="m51.5879 62.1392h24.1257" stroke-linecap="round"/></g><rect fill="#3c5d87" height="5.57672" opacity=".1" rx="2.78836" width="48.634" x="45.4696" y="79.874"/><rect fill="#3c5d87" height="38.2404" opacity=".08" rx="2.40847" width="4.81694" x="39.0963" y="12.1548"/><path d="m95.6602 55.1922c0-1.3302 1.0783-2.4085 2.4084-2.4085 1.3302 0 2.4084 1.0783 2.4084 2.4085v17.4899c0 1.3302-1.0782 2.4085-2.4084 2.4085-1.3301 0-2.4084-1.0783-2.4084-2.4085z" fill="#3c5d87" opacity=".08"/><path d="m80.7961 60.5187c-1.6314.8529-2.4471 1.2794-2.9527.8955-.5055-.384-.3137-1.2842.0699-3.0847l.3205-1.5041c.1779-.8346.2668-1.2519.507-1.5894.2401-.3376.6052-.5584 1.3355-.9999l12.7859-7.7313c1.8826-1.1384 2.824-1.7076 3.5939-1.5471.4052.0845.7742.2926 1.0561.5956.5358.5758.5358 1.6758.5358 3.8759 0 .8328 0 1.2492-.1471 1.6113-.0798.1963-.1902.3787-.3273.5404-.2526.2981-.6217.491-1.3597.8769z" fill="#3c5d87" opacity=".15"/><path d="m85.3594 57.5225h7.80249v33.7309h-7.80249z" fill="#fff" transform="matrix(-.70710678 -.70710678 .70710678 -.70710678 105.043061 158.55526)"/><path d="m85.3594 57.5225h7.80249v33.7309h-7.80249z" fill="#ffc800" fill-opacity=".4" transform="matrix(-.70710678 -.70710678 .70710678 -.70710678 105.043061 158.55526)"/><path d="m85.3594 57.5225h7.80249v33.7309h-7.80249z" stroke="#3c5d87" stroke-linejoin="round" stroke-width="1.5" transform="matrix(-.70710678 -.70710678 .70710678 -.70710678 105.043061 158.55526)"/><path d="m0 0h7.80249v3.90124h-7.80249z" fill="#fff" stroke="#3c5d87" stroke-linejoin="round" stroke-width="1.5" transform="matrix(-.707107 -.707107 -.707107 .707107 111.969 30.9116)"/><path d="m113.349 29.5345c1.523-1.5236 1.523-3.9937 0-5.5172-1.524-1.5235-3.994-1.5235-5.517 0l-1.38 1.3793 5.518 5.5172z" fill="#ffd9ab" stroke="#3c5d87" stroke-linejoin="round" stroke-width="1.5"/><path d="m82.599 54.7651 23.851-23.8513" stroke="#3c5d87" stroke-width="1.5"/><path d="m76.0614 61.97c-.4255.2035-.8703-.2413-.6668-.6668l4.4462-9.2966 5.5172 5.5172z" fill="#ffd9ab" stroke="#3c5d87" stroke-linejoin="round" stroke-width="1.5"/><path d="m76.1251 61.9116c-.4298.2149-.8857-.2411-.6708-.6708l1.4075-2.8151 2.0784 2.0784z" fill="#3c5d87"/><rect fill="#3c5d87" height="39.5848" opacity=".13" rx="2" transform="matrix(-.70710678 -.70710678 .70710678 -.70710678 104.565585 164.208083)" width="4.54567" x="86.2914" y="60.4478"/></svg>