<svg fill="none" height="96" viewBox="0 0 144 96" width="144" xmlns="http://www.w3.org/2000/svg" xmlns:xlink="http://www.w3.org/1999/xlink"><clipPath id="a"><path d="m0 0h144v96h-144z"/></clipPath><g clip-path="url(#a)"><g fill="#ffd9ab" opacity=".3"><rect height="73.7178" rx="12.7457" transform="matrix(.907266 .420558 -.378152 .925744 27.142 .560547)" width="70.6108"/><rect height="42.434" rx="8.76041" transform="matrix(.927829 -.373005 .333931 .942598 69.739 12.6768)" width="40.4683"/><rect height="34.551" rx="8.59023" transform="matrix(.985747 -.168234 .148723 .988879 77.59 59.4121)" width="32.5372"/><rect height="4.64144" rx="1.8141" transform="matrix(.762848 .646578 -.598414 .801187 126.421 75.1938)" width="4.57605"/><rect height="4.64144" rx="1.8141" transform="matrix(.762848 .646578 -.598414 .801187 3.49707 86.6694)" width="4.57605"/><rect height="4.46864" rx="1.8141" transform="matrix(.150045 .988679 -.985492 .169721 132.705 .597656)" width="4.74494"/><rect height="7.98213" rx="1.8141" transform="matrix(.150045 .988679 -.985492 .169721 133.228 16.4233)" width="8.47568"/><rect height="7.58403" rx="2.10561" transform="matrix(.90313 .429367 -.38641 .922327 -5.92102 33.2979)" width="7.27072"/></g><rect fill="#fff" height="70" rx="6.15385" width="94" x="19.3109" y="11.0005"/><path d="m80.4791 72.4661c-.862-6.7363-6.9958-11.9646-14.4251-11.9646-7.4294 0-13.5632 5.2283-14.4252 11.9646z" fill="#3c5d87"/><path d="m80.4791 72.4661c-.862-6.7363-6.9958-11.9646-14.4251-11.9646-7.4294 0-13.5632 5.2283-14.4252 11.9646" stroke="#3c5d87" stroke-width="1.32875"/><path d="m66.0092 52.5312c-2.2965 0-4.1712 1.8279-4.1712 4.0776v4.8743c0 2.2497 1.8747 4.0775 4.1712 4.0775s4.1712-1.8278 4.1712-4.0775v-4.8743c.0468-2.2028-1.8279-4.0776-4.1712-4.0776z" fill="#ffd9ab"/><path d="m66.0092 52.5312c-2.2965 0-4.1712 1.8279-4.1712 4.0776v4.8743c0 2.2497 1.8747 4.0775 4.1712 4.0775s4.1712-1.8278 4.1712-4.0775v-4.8743c.0468-2.2028-1.8279-4.0776-4.1712-4.0776z" fill="#c7a185" fill-opacity=".3"/><path d="m66.0092 52.5312c-2.2965 0-4.1712 1.8279-4.1712 4.0776v4.8743c0 2.2497 1.8747 4.0775 4.1712 4.0775s4.1712-1.8278 4.1712-4.0775v-4.8743c.0468-2.2028-1.8279-4.0776-4.1712-4.0776z" stroke="#3c5d87" stroke-width=".961539"/><path d="m64.1462 33.6914c-5.9069 0-10.6954 4.7886-10.6954 10.6957v1.7327c-1.4468.1463-2.5759 1.3679-2.5759 2.8533 0 1.5839 1.284 2.8679 2.8678 2.8679h.1331c.7977 3.8556 2.8399 6.7677 7.1272 6.7677h9.4073c4.9462 0 7.0571-2.9137 7.8426-6.7708 1.522-.0696 2.7345-1.3256 2.7345-2.8648 0-1.4003-1.0034-2.5661-2.3304-2.8177v-1.7683c0-5.9071-4.7885-10.6957-10.6954-10.6957z" fill="#ffd9ab"/><path d="m64.1462 33.6914c-5.9069 0-10.6954 4.7886-10.6954 10.6957v1.7327c-1.4468.1463-2.5759 1.3679-2.5759 2.8533 0 1.5839 1.284 2.8679 2.8678 2.8679h.1331c.7977 3.8556 2.8399 6.7677 7.1272 6.7677h9.4073c4.9462 0 7.0571-2.9137 7.8426-6.7708 1.522-.0696 2.7345-1.3256 2.7345-2.8648 0-1.4003-1.0034-2.5661-2.3304-2.8177v-1.7683c0-5.9071-4.7885-10.6957-10.6954-10.6957z" fill="#c7a185" fill-opacity=".3"/><path clip-rule="evenodd" d="m64.7619 48.9186c.1013.1902.0293.4265-.1609.5279-.1641.0874-.3432.1747-.509.2555-.1036.0505-.2021.0985-.2886.1425-.2448.1245-.4416.2392-.5923.3668-.1456.1234-.2383.2508-.287.401-.0493.1523-.065.3637.0044.6726.0687.3057.3251.5545.7237.6877.3984.1331.8737.1238 1.2536-.0352.1988-.0831.4274.0106.5106.2094.0832.1989-.0106.4275-.2094.5107-.5656.2366-1.2366.2443-1.8022.0553-.5654-.1889-1.0905-.6014-1.2378-1.2568-.0916-.4077-.0883-.7665.0147-1.0844.1037-.32.2971-.5627.5248-.7557.2226-.1887.4864-.3366.7432-.4672.1143-.0581.2217-.1103.3274-.1616.1506-.0732.2978-.1447.4568-.2294.1902-.1014.4266-.0294.528.1609z" fill="#3c5d87" fill-rule="evenodd"/><path d="m64.1462 33.6914c-5.9069 0-10.6954 4.7886-10.6954 10.6957v1.7327c-1.4468.1463-2.5759 1.3679-2.5759 2.8533 0 1.5839 1.284 2.8679 2.8678 2.8679h.1331c.7977 3.8556 2.8399 6.7677 7.1272 6.7677h9.4073c4.9462 0 7.0571-2.9137 7.8426-6.7708 1.522-.0696 2.7345-1.3256 2.7345-2.8648 0-1.4003-1.0034-2.5661-2.3304-2.8177v-1.7683c0-5.9071-4.7885-10.6957-10.6954-10.6957z" stroke="#3c5d87" stroke-width="1.25"/><path d="m73.1701 46.3136c0 1.7105-1.3867 2.1112-3.0972 2.1112s-3.0972-.4007-3.0972-2.1112c0-1.7106 1.3867-3.0973 3.0972-3.0973s3.0972 1.3867 3.0972 3.0973z" fill="#fff"/><path d="m63.5995 46.3136c0 1.7105-1.3866 2.1112-3.0971 2.1112-1.7106 0-3.0972-.4007-3.0972-2.1112 0-1.7106 1.3866-3.0973 3.0972-3.0973 1.7105 0 3.0971 1.3867 3.0971 3.0973z" fill="#fff"/><path d="m71.007 45.6217c.4351 1.062-.1305 1.9285-.9667 1.9523-.8361.0238-1.1883-1.2878-1.1624-2.24.0259-1.0048.5301-1.8292 1.3663-1.853.8361-.0238 1.0905.9473.7628 2.1407z" fill="#3c5d87"/><path d="m61.5718 45.6217c.4351 1.062-.1305 1.9285-.9666 1.9523-.8362.0238-1.1884-1.2878-1.1624-2.24.0258-1.0048.53-1.8292 1.3662-1.853.8361-.0238 1.0905.9473.7628 2.1407z" fill="#3c5d87"/><path d="m64.1466 55.0521c-.1018-.2809.0514-.5811.3219-.708 1.4103-.6614 3.8035-1.6715 5.4611-2.4073.3275-.1454.7173-.0072.8456.3274 1.9609 5.1134-5.3182 6.4029-6.6286 2.7879z" fill="#fff" stroke="#3c5d87"/><path d="m67.031 47.3264c-.5066-5.0286 6.1142-5.652 6.0726-.3082" stroke="#3c5d87" stroke-linecap="round"/><path d="m57.542 47.323c-.5066-5.0287 6.1142-5.652 6.0726-.3082" stroke="#3c5d87" stroke-linecap="round"/><path clip-rule="evenodd" d="m48.9621 36.3714c.0984 1.4239 1.1152 2.5137 2.4131 2.7762l-.8627.5683c-4.0563 3.871 1.2231 9.2216 5.132 6.2794l15.0281-10.8029c2.0998-1.3833 1.8558-4.0753.5632-5.541-4.5174-5.1223-22.8367-1.4294-22.2737 6.72z" fill="#3c5d87" fill-rule="evenodd"/><path clip-rule="evenodd" d="m78.657 46.2071c-1.0901-.453-1.9809-1.2328-2.6444-1.9262-.8859-.9258-1.7029-2.0592-2.4163-3.1878-1.4309-2.2635-2.644-4.8268-3.3355-6.5142-.0916-.2235-.1512-.4522-.1808-.681 4.8922.983 8.577 5.3042 8.577 10.486z" fill="#3c5d87" fill-rule="evenodd"/><path d="m66.1602 41.628c.9035-.6161 3.4007-1.5771 6.1609-.4928" stroke="#3c5d87" stroke-linecap="round"/><path d="m19.3109 22.0005c0-4.5416 0-6.8123 1.14-8.4143.3979-.5591.8866-1.0478 1.4458-1.4457 1.6019-1.14 3.8727-1.14 8.4142-1.14h72.0001c4.541 0 6.812 0 8.414 1.14.559.3979 1.048.8866 1.446 1.4457 1.14 1.602 1.14 3.8727 1.14 8.4143z" fill="#ffd9ab" stroke="#3c5d87" stroke-linejoin="round" stroke-miterlimit="10" stroke-width="1.5"/><rect height="70" rx="6.15385" stroke="#3c5d87" stroke-linejoin="round" stroke-miterlimit="10" stroke-width="1.5" width="94" x="19.3115" y="11.0005"/><g fill="#3c5d87"><path d="m19 71.5981h94v1.5h-94zm94 13.75h-94zm-94 0v-13zm94-13v13z"/><path d="m26.3109 18.7501c1.1046 0 2-.8954 2-2.0001 0-1.1046-.8954-2-2-2-1.1045 0-2 .8954-2 2 0 1.1047.8955 2.0001 2 2.0001z"/><path d="m32.3109 18.7501c1.1046 0 2-.8954 2-2.0001 0-1.1046-.8954-2-2-2-1.1045 0-2 .8954-2 2 0 1.1047.8955 2.0001 2 2.0001z"/><path d="m38.3109 18.7501c1.1046 0 2-.8954 2-2.0001 0-1.1046-.8954-2-2-2-1.1045 0-2 .8954-2 2 0 1.1047.8955 2.0001 2 2.0001z"/><rect height="6.92308" opacity=".14" rx="2.30769" width="78.651" x="27.3115" y="78.1948"/></g><path clip-rule="evenodd" d="m85.8972 56.2358h11.6027v-.0007c.3212.0007.656.0007 1.0052.0007h26.9879c4.245 0 6.368 0 7.687-1.3189s1.319-3.4416 1.319-7.6871v-11.9879c0-4.2455 0-6.3682-1.319-7.6871-1.319-1.319-3.442-1.319-7.687-1.319h-26.9879c-4.2455 0-6.3682 0-7.6872 1.319-1.3189 1.3189-1.3189 3.4416-1.3189 7.6871v11.9879c0 .7267 0 1.3913.0067 2.0003l-4.6035 4.6035c-.8865.8865-.2587 2.4022.995 2.4022z" fill="#fff" fill-rule="evenodd"/><path d="m97.4999 56.2358h.75v.75h-.75zm0-.0007h-.75v-.7517l.7517.0017zm35.6801-1.3182-.53-.5303zm0-27.3621-.53.5303zm-42.3621 0-.5303-.5304zm-1.3122 21.6753.7499-.0081.0034.3154-.223.223zm-4.6035 4.6035.5303.5303zm12.5977 3.1522h-11.6027v-1.5h11.6027zm.75-.7507v.0007h-1.5v-.0007zm-.7483-.75c.3202.0007.6542.0007 1.0035.0007v1.5c-.349 0-.6847 0-1.0069-.0007zm1.0035.0007h26.9879v1.5h-26.9879zm26.9879 0c2.144 0 3.676-.0016 4.841-.1581 1.143-.1537 1.819-.4442 2.316-.9411l1.06 1.0607c-.822.822-1.867 1.1909-3.176 1.367-1.288.1731-2.939.1715-5.041.1715zm7.157-1.0992c.497-.4969.787-1.1726.941-2.3157.156-1.1647.158-2.6972.158-4.8411h1.5c0 2.1015.002 3.7531-.172 5.041-.176 1.3094-.545 2.3544-1.367 3.1765zm1.099-7.1568v-11.9879h1.5v11.9879zm0-11.9879c0-2.1439-.002-3.6765-.158-4.8411-.154-1.1431-.444-1.8188-.941-2.3157l1.06-1.0607c.822.8221 1.191 1.8671 1.367 3.1765.174 1.2879.172 2.9395.172 5.041zm-1.099-7.1568c-.497-.4969-1.173-.7874-2.316-.9411-1.165-.1566-2.697-.1582-4.841-.1582v-1.5c2.102 0 3.753-.0016 5.041.1716 1.309.176 2.354.545 3.176 1.367zm-7.157-1.0993h-26.9879v-1.5h26.9879zm-26.9879 0c-2.1439 0-3.6765.0016-4.8411.1582-1.1431.1537-1.8188.4442-2.3157.9411l-1.0607-1.0607c.8221-.822 1.8671-1.191 3.1765-1.367 1.2879-.1732 2.9395-.1716 5.041-.1716zm-7.1568 1.0993c-.4969.4969-.7874 1.1726-.9411 2.3157-.1566 1.1646-.1582 2.6972-.1582 4.8411h-1.5c0-2.1015-.0016-3.7531.1716-5.041.176-1.3094.545-2.3544 1.367-3.1765zm-1.0993 7.1568v11.9879h-1.5v-11.9879zm0 11.9879c0 .7278 0 1.388.0066 1.9922l-1.4999.0163c-.0067-.6139-.0067-1.2828-.0067-2.0085zm-5.8772 6.0735 4.6035-4.6035 1.0607 1.0606-4.6035 4.6035zm1.5254 3.6825c-1.9219 0-2.8843-2.3236-1.5254-3.6825l1.0607 1.0606c-.414.414-.1208 1.1219.4647 1.1219z" fill="#3c5d87"/><path d="m98.5514 35.7202h15.1976" stroke="#ffd9ab" stroke-linecap="round" stroke-width="1.4072"/><path d="m118.252 35.7202h4.503" stroke="#ffd9ab" stroke-linecap="round" stroke-width="1.4072"/><path d="m98.5513 41.3486h23.0777" stroke="#ffd9ab" stroke-linecap="round" stroke-width="1.4072"/><path d="m98.5515 46.9819h20.2635" stroke="#ffd9ab" stroke-linecap="round" stroke-width="1.4072"/><path d="m123.319 46.9819h2.252" stroke="#ffd9ab" stroke-linecap="round" stroke-width="1.4072"/><rect fill="#3c5d87" height="6.0415" opacity=".1" rx="1.68864" width="36.6812" x="91.7975" y="52.9624"/></g></svg>