<svg fill="none" height="96" viewBox="0 0 144 96" width="144" xmlns="http://www.w3.org/2000/svg"><g fill="#ffd9ab" opacity=".3"><rect height="62.3079" rx="11.7528" transform="matrix(-.567874 .823115 .823123 .567863 75.9877 3)" width="62.3076"/><rect height="31.6285" rx="7.13849" transform="matrix(-.975321 .220791 .220798 .97532 53.0496 12.2017)" width="31.6289"/><rect height="36.7916" rx="10.0601" transform="matrix(-.917968 -.396654 -.396664 .917964 78.5012 58.6519)" width="36.792"/><rect height="4.31883" rx="1.8159" transform="matrix(-.782529 .622614 .622625 .78252 16.3796 68.0239)" width="4.31885"/><rect height="4.31883" rx="1.8159" transform="matrix(-.782529 .622614 .622625 .78252 124.345 76.6113)" width="4.31885"/><rect height="4.31887" rx="1.8159" transform="matrix(-.186212 .98251 .982511 .186207 122.996 4.22705)" width="4.31881"/><rect height="4.31887" rx="1.8159" transform="matrix(-.159598 .987182 .987183 .159594 18.5962 6.68066)" width="4.31881"/><rect height="7.7146" rx="1.8159" transform="matrix(-.159598 .987182 .987183 .159594 14.2314 51.4609)" width="7.7145"/><rect height="6.9615" rx="2.1077" transform="matrix(-.913186 .407543 .407553 .913182 129.163 13.4282)" width="6.96157"/></g><path d="m25 45.3643c0-7.5425 0-11.3138 2.3431-13.6569 2.3432-2.3431 6.1144-2.3431 13.6569-2.3431h64c7.542 0 11.314 0 13.657 2.3431s2.343 6.1144 2.343 13.6569v4.6545c0 7.5425 0 11.3137-2.343 13.6569-2.343 2.3431-6.115 2.3431-13.657 2.3431h-64c-7.5425 0-11.3137 0-13.6569-2.3431-2.3431-2.3432-2.3431-6.1144-2.3431-13.6569z" fill="#fff" stroke="#3c5d87" stroke-width="1.5"/><rect fill="#3c5d87" height="7.46686" opacity=".12" rx="3" width="38.8277" x="73" y="62"/><path d="m25 45.3643c0-7.5425 0-11.3138 2.3431-13.6569 2.3432-2.3431 6.1144-2.3431 13.6569-2.3431h2.7636v36.6545h-2.7636c-7.5425 0-11.3137 0-13.6569-2.3431-2.3431-2.3432-2.3431-6.1144-2.3431-13.6569z" fill="#3c5d87" fill-opacity=".2" stroke="#3c5d87" stroke-width="1.5"/><rect fill="#f0faff" height="44.5091" rx="4" stroke="#2285d0" stroke-width="1.6" width="22.7721" x="42.4141" y="25.0005"/><g stroke="#3c5d87" stroke-width="1.5"><path d="m82.6 29.3643v36.6545"/><path d="m101.8 29.3643v36.6545"/></g></svg>