<svg fill="none" height="96" viewBox="0 0 144 96" width="144" xmlns="http://www.w3.org/2000/svg" xmlns:xlink="http://www.w3.org/1999/xlink"><clipPath id="a"><path d="m0 0h144v96h-144z"/></clipPath><g clip-path="url(#a)"><rect fill="#ffd9ab" height="65.8199" opacity=".4" rx="17.4904" transform="matrix(.29126659 .95664193 -.95664193 .29126659 74.14253 -85.057373)" width="65.8199" x="94.4761" y="7.50977"/><rect fill="#ffd9ab" height="13.8493" opacity=".45" rx="3.96001" transform="matrix(-.47316592 .88097333 -.88097333 -.47316592 250.906185 19.060075)" width="13.8493" x="119.754" y="84.5527"/><rect fill="#ffd9ab" height="6.1394" opacity=".5" rx="1.75547" transform="matrix(.3832 .923665 .923665 -.3832 102 7.35254)" width="6.1394"/><rect fill="#ffd9ab" height="4.1394" opacity=".5" rx="1" transform="matrix(.0755123 .997145 .997145 -.0755123 33.4838 11.7974)" width="4.1394"/><rect fill="#ffd9ab" height="6.1394" opacity=".5" rx="1.75547" transform="matrix(.31091531 .95043762 -.95043762 .31091531 95.38151 24.442622)" width="6.1394" x="30.8342" y="78"/><rect fill="#ffd9ab" height="8.7217" opacity=".5" rx="2.49384" transform="matrix(-.184328 .982865 .982865 .184328 51.6074 1)" width="8.7217"/><path clip-rule="evenodd" d="m71.9986 24.7327c-.0891-.0328-.1748-.0745-.2557-.1247-.1515-.0939-.2791-.2271-.5342-.4935v-.0001c-.7654-.7991-1.1481-1.1987-1.6024-1.4804-.3634-.2254-.7588-.3942-1.1729-.5008-.5177-.1332-1.071-.1332-2.1776-.1332h-20.3062c-5.6331 0-8.4496 0-10.1996 1.75s-1.75 4.5665-1.75 10.1996v28.1008c0 5.6331 0 8.4497 1.75 10.1996 1.75 1.75 4.5665 1.75 10.1996 1.75h17.4811c.4845 0 .7267 0 .9647-.0387.2381-.0387.4678-.1154.9273-.2688l.0529-.0176.0001-.0001c.6277-.2095.9415-.3143 1.2666-.3143.325 0 .6389.1048 1.2666.3144l.3074.1026c.2054.0686.3082.1029.4125.1295.1719.044.3474.0725.5243.0852.1075.0078.2158.0078.4324.0078.8407 0 1.3869 0 1.8058-.0596.7276.0596 1.6294.0596 2.7677.0596.4717 0 .7075 0 .9394-.0367l.025-.004c.2316-.0387.4552-.1133.9026-.2627h.0001l.065-.0217c.6277-.2096.9416-.3144 1.2666-.3144.3251 0 .6389.1048 1.2666.3143l.0001.0001.0529.0176c.4595.1534.6892.2301.9273.2688.238.0387.4802.0387.9647.0387h17.4811c5.6336 0 8.4496 0 10.1996-1.75 1.75-1.7499 1.75-4.5665 1.75-10.1996v-28.1008c0-5.6331 0-8.4496-1.75-10.1996s-4.566-1.75-10.1996-1.75h-20.309c-1.1065 0-1.6598 0-2.1775.1332-.4141.1066-.8096.2754-1.173.5008-.4543.2817-.837.6813-1.6023 1.4804-.2552.2664-.3828.3996-.5342.4936-.0809.0502-.1666.0919-.2558.1247z" fill="#ffd9ab" fill-rule="evenodd"/><path d="m71.9986 24.7327-.2734.743.2734.1006.2734-.1006zm-.2557-.1247-.4173.6728zm-.5342-.4935-.5988.5178.0132.0152.0139.0146zm0-.0001.5988-.5178-.0132-.0152-.0139-.0145zm-1.6024-1.4804.4172-.6728zm-1.1729-.5008-.1973.7667zm-32.6834 1.6168.5598.5598zm0 48.5.5598-.5598zm28.6454 1.7113.127.7814zm.9273-.2688.2507.751zm.0529-.0176.2507.7509.0219-.0073.0214-.0086zm.0001-.0001-.2507-.7509-.0219.0073-.0214.0086zm1.2666-.3143-.0001.7917h.0001zm1.2666.3144.2507-.751zm.3074.1026.2506-.7509zm.4125.1295.196-.767zm.5243.0852.0571-.7896h-.0001zm2.2382-.0518.0647-.789-.0884-.0073-.0878.0125zm3.7071.0229.1237.782.0034-.0006zm.025-.004.127.7814.0033-.0006zm.9026-.2627.2506.751.0169-.0057.0166-.0064zm.0001 0-.2507-.7509-.0169.0056-.0166.0064zm.065-.0217-.2507-.751v.0001zm1.2666-.3144v.7917zm1.2666.3143.278-.7412-.0136-.0051-.0137-.0046zm.0001.0001-.278.7412.0135.0051.0138.0046zm.0529.0176-.2507.751zm29.5727-1.4425.56.5598zm0-48.5.56-.5598zm-32.6861-1.6168.1973.7667zm-1.173.5008.4173.6728zm-1.6023 1.4804-.5718-.5475zm-.5342.4936.4172.6728zm.0176-.6182c-.039-.0144-.0765-.0327-.1119-.0546l-.8345 1.3456c.1265.0784.2604.1437.3996.1949zm-.1119-.0546c-.0464-.0288-.0965-.0727-.3796-.3683l-1.1435 1.0952c.2271.2371.4322.4596.6886.6187zm-.3526-.3386-1.1976 1.0357zm-.0271-.0297c-.7373-.7699-1.1975-1.2588-1.7569-1.6057l-.8344 1.3456c.3493.2166.6544.5268 1.4478 1.3552zm-1.7569-1.6057c-.4315-.2676-.9011-.4681-1.3928-.5947l-.3946 1.5334c.3364.0866.6577.2238.953.4069zm-1.3928-.5947c-.6374-.164-1.3088-.1582-2.3749-.1582v1.5834c1.1471 0 1.5822.0058 1.9803.1082zm-2.3749-.1582h-20.3062v1.5834h20.3062zm-20.3062 0c-2.7942 0-4.9694-.0016-6.6615.2258-1.7148.2306-3.0513.7095-4.0979 1.7561l1.1196 1.1196c.7033-.7034 1.6501-1.0995 3.1893-1.3064 1.562-.2101 3.6116-.2117 6.4505-.2117zm-10.7594 1.9819c-1.0466 1.0466-1.5255 2.3831-1.7561 4.0979-.2274 1.6921-.2258 3.8673-.2258 6.6615h1.5834c0-2.8389.0016-4.8885.2117-6.4505.2069-1.5392.603-2.486 1.3064-3.1893zm-1.9819 10.7594v28.1008h1.5834v-28.1008zm0 28.1008c0 2.7942-.0016 4.9694.2258 6.6615.2306 1.7148.7095 3.0513 1.7561 4.0979l1.1196-1.1196c-.7034-.7033-1.0995-1.6501-1.3064-3.1893-.2101-1.562-.2117-3.6116-.2117-6.4505zm1.9819 10.7594c1.0466 1.0466 2.3831 1.5255 4.0979 1.7561 1.6921.2275 3.8673.2258 6.6615.2258v-1.5834c-2.8389 0-4.8885-.0016-6.4505-.2116-1.5392-.207-2.486-.6031-3.1893-1.3065zm10.7594 1.9819h17.4811v-1.5834h-17.4811zm17.4811 0c.4602 0 .7762.0023 1.0917-.049l-.254-1.5628c-.1606.0261-.329.0284-.8377.0284zm1.0917-.049c.3155-.0512.6145-.1535 1.051-.2992l-.5014-1.5019c-.4825.1611-.643.2122-.8036.2383zm1.051-.2992.0529-.0177-.5014-1.5018-.0529.0176zm.0962-.0336h.0001l-.588-1.4701h-.0001zm-.0432.0159c.6762-.2258.8492-.2736 1.0158-.2736l.0001-1.5833c-.4834 0-.9382.1617-1.5173.355zm1.0159-.2736c.1667 0 .3396.0478 1.0159.2736l.5014-1.5019c-.5792-.1933-1.034-.355-1.5173-.355zm1.0159.2736.3074.1026.5013-1.5018-.3073-.1027zm.3074.1026c.1952.0652.329.1103.4673.1457l.3919-1.5341c-.0704-.018-.1422-.0414-.3579-.1134zm.4673.1457c.2174.0555.4394.0916.6632.1078l.114-1.5793c-.13-.0094-.259-.0303-.3853-.0626zm.6632.1078c.1424.0102.2836.0098.4894.0098v-1.5834c-.2274 0-.3029-.0004-.3753-.0057zm.4894.0098c.8147 0 1.4292.0019 1.9174-.0675l-.2231-1.5676c-.3497.0498-.8276.0517-1.6943.0517zm4.5735-1.5834c-1.1505 0-2.0151-.0006-2.703-.0569l-.1293 1.578c.7672.0629 1.7063.0623 2.8323.0623zm.8157-.0269c-.1564.0247-.3204.0269-.8157.0269v1.5834c.4481 0 .7557.0022 1.0631-.0464zm.0216-.0035-.0249.004.2541 1.5628.0249-.004zm.779-.2322c-.4697.1568-.626.2066-.7822.2327l.2606 1.5617c.3069-.0512.598-.1507 1.0229-.2925zm-.0334.012h-.0001l.5683 1.4778h.0002zm.0985-.0337-.065.0217.5014 1.5018.065-.0217zm1.5173-.3551c-.4833 0-.9381.1617-1.5173.355l.5014 1.5019c.6763-.2258.8492-.2736 1.0159-.2736zm1.5173.355c-.5791-.1933-1.0339-.355-1.5173-.355v1.5833c.1667 0 .3397.0478 1.0159.2736zm.0274.0097h-.0001l-.556 1.4825h.0001zm.0256.008-.0529-.0176-.5014 1.5018.0529.0177zm.8036.2383c-.1606-.0261-.3211-.0772-.8036-.2383l-.5014 1.5019c.4365.1457.7355.248 1.051.2992zm.8377.0284c-.5087 0-.6771-.0023-.8377-.0284l-.254 1.5628c.3155.0513.6315.049 1.0917.049zm17.4811 0h-17.4811v1.5834h17.4811zm9.6396-1.5181c-.703.7034-1.65 1.0995-3.189 1.3065-1.562.21-3.612.2116-6.4506.2116v1.5834c2.7946 0 4.9696.0017 6.6616-.2258 1.715-.2306 3.051-.7095 4.098-1.7561zm1.518-9.6398c0 2.8389-.001 4.8885-.211 6.4505-.207 1.5392-.603 2.486-1.307 3.1893l1.12 1.1196c1.046-1.0466 1.525-2.3831 1.756-4.0979.227-1.6921.226-3.8673.226-6.6615zm0-28.1008v28.1008h1.584v-28.1008zm-1.518-9.6398c.704.7033 1.1 1.6501 1.307 3.1893.21 1.562.211 3.6116.211 6.4505h1.584c0-2.7942.001-4.9694-.226-6.6615-.231-1.7148-.71-3.0513-1.756-4.0979zm-9.6396-1.5181c2.8386 0 4.8886.0016 6.4506.2117 1.539.2069 2.486.603 3.189 1.3064l1.12-1.1196c-1.047-1.0466-2.383-1.5255-4.098-1.7561-1.692-.2274-3.867-.2258-6.6616-.2258zm-20.309 0h20.309v-1.5834h-20.309zm-1.9802.1082c.398-.1024.8331-.1082 1.9802-.1082v-1.5834c-1.066 0-1.7374-.0058-2.3748.1582zm-.953.4069c.2952-.1831.6165-.3203.953-.4069l-.3946-1.5334c-.4917.1266-.9614.3271-1.3929.5947zm-1.4479 1.3552c.7934-.8284 1.0986-1.1386 1.4479-1.3552l-.8345-1.3456c-.5593.3469-1.0195.8358-1.7569 1.6057zm-.6887.6188c.2565-.1591.4616-.3816.6887-.6188l-1.1435-1.0951c-.2831.2956-.3332.3395-.3796.3683zm-.3996.1949c.1392-.0512.2732-.1165.3996-.1949l-.8344-1.3456c-.0354.0219-.0729.0402-.112.0546z" fill="#3c5d87"/><path d="m38 30.4685c0-3.5207 0-5.281 1.0937-6.3748 1.0938-1.0937 2.8541-1.0937 6.3748-1.0937h19.063c3.5207 0 5.281 0 6.3748 1.0937 1.0937 1.0938 1.0937 2.8541 1.0937 6.3748v35.5441c0 1.4083 0 2.1124-.4375 2.5499s-1.1416.4375-2.5499.4375h-23.5441c-3.5207 0-5.281 0-6.3748-1.0937-1.0937-1.0938-1.0937-2.8541-1.0937-6.3748z" fill="#fff" stroke="#3c5d87" stroke-width="1.58333"/><path d="m106 30.4685c0-3.5207 0-5.281-1.094-6.3748-1.093-1.0937-2.854-1.0937-6.3745-1.0937h-19.063c-3.5207 0-5.281 0-6.3748 1.0937-1.0937 1.0938-1.0937 2.8541-1.0937 6.3748v35.5441c0 1.4083 0 2.1124.4375 2.5499s1.1416.4375 2.5499.4375h23.5441c3.5205 0 5.2815 0 6.3745-1.0937 1.094-1.0938 1.094-2.8541 1.094-6.3748z" fill="#fff" stroke="#3c5d87" stroke-width="1.58333"/><path d="m38 27.4685c0-3.5207 0-5.281 1.0937-6.3748 1.0938-1.0937 2.8541-1.0937 6.3748-1.0937h19.063c3.5207 0 5.281 0 6.3748 1.0937 1.0937 1.0938 1.0937 2.8541 1.0937 6.3748v35.5441c0 1.4083 0 2.1124-.4375 2.5499s-1.1416.4375-2.5499.4375h-23.5441c-3.5207 0-5.281 0-6.3748-1.0937-1.0937-1.0938-1.0937-2.8541-1.0937-6.3748z" fill="#fff" stroke="#3c5d87" stroke-width="1.58333"/><path d="m106 27.4685c0-3.5207 0-5.281-1.094-6.3748-1.093-1.0937-2.854-1.0937-6.3745-1.0937h-19.063c-3.5207 0-5.281 0-6.3748 1.0937-1.0937 1.0938-1.0937 2.8541-1.0937 6.3748v35.5441c0 1.4083 0 2.1124.4375 2.5499s1.1416.4375 2.5499.4375h23.5441c3.5205 0 5.2815 0 6.3745-1.0937 1.094-1.0938 1.094-2.8541 1.094-6.3748z" fill="#fff" stroke="#3c5d87" stroke-width="1.58333"/><g stroke-linecap="round" stroke-width="1.75939"><path d="m71.9987 65.9199v4.2225" stroke="#3c5d87"/><path d="m45.7837 25.1794h19.1524" stroke="#ffd9ab"/><path d="m45.7837 29.6603h19.1524" stroke="#ffd9ab"/><path d="m45.7837 34.1467h19.1524" stroke="#ffd9ab"/><path d="m45.7837 38.6223h19.1524" stroke="#ffd9ab"/><path d="m45.7837 43.1032h19.1524" stroke="#ffd9ab"/><path d="m45.7837 47.5842h19.1524" stroke="#ffd9ab"/><path d="m45.7837 52.0705h19.1524" stroke="#ffd9ab"/><path d="m45.7837 56.5515h19.1524" stroke="#ffd9ab"/><path d="m45.7837 61.0324h19.1524" stroke="#ffd9ab"/><path d="m78.5084 25.1794h19.1523" stroke="#ffd9ab"/><path d="m78.5084 29.6603h19.1523" stroke="#ffd9ab"/><path d="m78.5084 34.1467h19.1523" stroke="#ffd9ab"/><path d="m78.5084 38.6223h19.1523" stroke="#ffd9ab"/><path d="m78.5084 43.1032h19.1523" stroke="#ffd9ab"/><path d="m78.5084 47.5842h19.1523" stroke="#ffd9ab"/><path d="m78.5084 52.0705h19.1523" stroke="#ffd9ab"/><path d="m78.5084 56.5515h19.1523" stroke="#ffd9ab"/><path d="m78.5084 61.0324h19.1523" stroke="#ffd9ab"/></g><rect fill="#3c5d87" height="8" opacity=".15" rx="2.24055" width="63.8842" x="40.0547" y="71.5"/><rect fill="#3c5d87" height="5" opacity=".15" rx="2" width="60.2542" x="42.2773" y="63.4897"/><rect fill="#3c5d87" height="38" opacity=".15" rx="2" width="6" x="69" y="25"/><rect fill="#3c5d87" height="39" opacity=".12" rx="2" width="4" x="104" y="26"/><rect fill="#fff" fill-opacity=".2" height="5" rx="2" width="12" x="80" y="27"/><rect fill="#cacfd3" height="5" rx="2" width="12" x="80" y="27"/><rect height="5" rx="2" stroke="#fff" stroke-width="1.5" width="12" x="80" y="27"/><rect fill="#fff" fill-opacity=".2" height="5" rx="2" width="7" x="87" y="36"/><rect fill="#cacfd3" height="5" rx="2" width="7" x="87" y="36"/><rect height="5" rx="2" stroke="#fff" stroke-width="1.5" width="7" x="87" y="36"/><rect fill="#fff" fill-opacity=".2" height="5" rx="2" width="7" x="58" y="27"/><rect fill="#cacfd3" height="5" rx="2" width="7" x="58" y="27"/><rect height="5" rx="2" stroke="#fff" stroke-width="1.5" width="7" x="58" y="27"/><rect fill="#fff" fill-opacity=".2" height="5" rx="2" width="9" x="79" y="49.5"/><rect fill="#cacfd3" height="5" rx="2" width="9" x="79" y="49.5"/><rect height="5" rx="2" stroke="#fff" stroke-width="1.5" width="9" x="79" y="49.5"/><rect fill="#fff" fill-opacity=".2" height="5" rx="2" width="13" x="47" y="45.3999"/><rect fill="#cacfd3" height="5" rx="2" width="13" x="47" y="45.3999"/><rect height="5" rx="2" stroke="#fff" stroke-width="1.5" width="13" x="47" y="45.3999"/></g></svg>