<svg fill="none" height="96" viewBox="0 0 144 96" width="144" xmlns="http://www.w3.org/2000/svg" xmlns:xlink="http://www.w3.org/1999/xlink"><clipPath id="a"><path d="m0 0h144v96h-144z"/></clipPath><g clip-path="url(#a)"><g fill="#ffd9ab"><rect height="65.8199" opacity=".4" rx="17.4904" transform="matrix(-.94943644 .31395931 -.31395931 -.94943644 230.230347 116.983498)" width="65.8199" x="105.695" y="77.0312"/><rect height="8.7217" opacity=".5" rx="2.49384" transform="matrix(-.184328 .982865 .982865 .184328 97.6077 6.53906)" width="8.7217"/><rect height="13.8493" opacity=".45" rx="3.96001" transform="matrix(-.61758511 .78650406 -.78650406 -.61758511 73.546582 1.347498)" width="13.8493" x="36.4457" y="18.5537"/><rect height="6.1394" opacity=".5" rx="1.75547" transform="matrix(.3832 .923665 .923665 -.3832 18.5396 75.8906)" width="6.1394"/><rect height="4.1394" opacity=".5" rx="1" transform="matrix(.3832 .923665 .923665 -.3832 107.538 22.125)" width="4.1394"/></g><path d="m69.7051 18.3967c-6.2143 4.1917-20.111 16.7793-20.111 16.7793h-10.2121c-4.2038 0-6.3819 6.8064-6.3819 12.4517 0 4.6309 2.1781 13.407 6.3819 13.407h10.2121s13.5946 11.5911 19.9201 15.9173c1.4832 1.0692 2.9623.7151 2.8607-1.6759v-55.4575c0-1.0692-1.1893-2.5323-2.6698-1.4219z" style="fill-rule:evenodd;clip-rule:evenodd;fill:#fff;stroke:#3c5d87;stroke-width:1.5;stroke-linejoin:round"/><path d="m66.0001 27.1401c-3.1456 2.4683-6.8857 5.6512-10 8.3618" opacity=".5" stroke="#ffc800" stroke-linecap="round" stroke-width="1.5"/><path d="m86.5676 47.964c0 1.9271-1.5642 3.4904-3.4923 3.4904-1.9282 0-3.4924-1.5633-3.4924-3.4904 0-1.927 1.5642-3.4904 3.4924-3.4904 1.9281 0 3.4923 1.5634 3.4923 3.4904" stroke="#3c5d87" stroke-linecap="round" stroke-width="1.5"/><path d="m81.5336 61.9254c7.7153 0 13.9681-6.2519 13.9681-13.9615 0-7.7095-6.2528-13.9615-13.9681-13.9615" stroke="#3c5d87" stroke-linecap="round" stroke-width="1.5"/><path d="m81.5336 75.4148c15.1698 0 27.4664-12.2897 27.4664-27.4508s-12.2966-27.4508-27.4664-27.4508" stroke="#3c5d87" stroke-linecap="round" stroke-width="1.5"/><path clip-rule="evenodd" d="m49.0001 61.0345v-25.8587h-9.6181c-4.2038 0-6.3819 6.8064-6.3819 12.4517 0 4.6309 2.1781 13.407 6.3819 13.407z" fill="#ffd9ab" fill-rule="evenodd"/><path d="m49.0001 61.0345v.75h.75v-.75zm0-25.8587h.75v-.75h-.75zm.75 25.8587v-25.8587h-1.5v25.8587zm-.75-26.6087h-9.6181v1.5h9.6181zm-9.6181 0c-2.5682 0-4.3513 2.0763-5.4527 4.5542-1.1216 2.5234-1.6792 5.7445-1.6792 8.6475h1.5c0-2.7423.5315-5.747 1.5499-8.0382 1.0386-2.3366 2.4464-3.6635 4.082-3.6635zm-7.1319 13.2017c0 2.4047.5605 5.8482 1.6648 8.7101.5521 1.4307 1.258 2.7635 2.1358 3.7514.8809.9913 1.9933 1.6955 3.3313 1.6955v-1.5c-.7639 0-1.5001-.3929-2.21-1.1918-.7129-.8023-1.3397-1.953-1.8576-3.2951-1.0357-2.6839-1.5643-5.9439-1.5643-8.1701zm7.1319 14.157h9.6181v-1.5h-9.6181z" fill="#3c5d87"/><path clip-rule="evenodd" d="m43.7732 53c-5.5363 0-8.3044 0-8.5616 3.7244-.2572 3.7245 1.0822 3.9103 3.761 4.2821.1342.0186.2707.0282.4093.0282h7.2646c1.4556 0 2.1834 0 2.8469.2417.6634.2417 1.2258.7144 2.3507 1.6598 4.1315 3.472 12.9363 10.7782 17.67 14.0158 1.4832 1.0692 2.9623.7151 2.8607-1.6759v-14.2761c0-3.7712 0-5.6569-1.1716-6.8284-1.1716-1.1716-3.0572-1.1716-6.8284-1.1716h-14.3748z" fill="#3c5d87" fill-rule="evenodd" opacity=".09"/><path d="m39.382 59.0347h3.8959c3.1123 0 4.6684 0 6.0803.5101 1.4118.5102 2.6307 1.5235 5.0686 3.55 4.5364 3.7709 11.191 9.1923 15.0874 11.8572" opacity=".12" stroke="#3c5d87" stroke-linecap="round" stroke-width="7.71429"/><path d="m79.3379 88.0724c-1.6314.8529-2.4471 1.2794-2.9526.8955-.5056-.3839-.3137-1.2842.0699-3.0847l.7206-3.3818c.1778-.8346.2667-1.2519.5069-1.5894.2402-.3376.6053-.5584 1.3355-.9999l16.8669-10.1989c2.6897-1.6264 4.0345-2.4396 5.0519-1.8658 1.018.5739 1.018 2.1455 1.018 5.2887v.6891c0 1.1797 0 1.7696-.289 2.2472-.29.4777-.812.751-1.8579 1.2976z" fill="#3c5d87" opacity=".15"/><path d="m86.0278 83.8086h9.79382v42.3397h-9.79382z" fill="#fff" transform="matrix(-.70710678 -.70710678 .70710678 -.70710678 87.597011 203.90107)"/><path d="m86.0278 83.8086h9.79382v42.3397h-9.79382z" fill="#ffc800" fill-opacity=".4" transform="matrix(-.70710678 -.70710678 .70710678 -.70710678 87.597011 203.90107)"/><path d="m86.0278 83.8086h9.79382v42.3397h-9.79382z" stroke="#3c5d87" stroke-linejoin="round" stroke-width="1.5" transform="matrix(-.70710678 -.70710678 .70710678 -.70710678 87.597011 203.90107)"/><path d="m0 0h9.79382v4.89691h-9.79382z" fill="#fff" stroke="#3c5d87" stroke-linejoin="round" stroke-width="1.5" transform="matrix(-.707107 -.707107 -.707107 .707107 119.428 50.4062)"/><path d="m121.161 48.6775c1.912-1.9124 1.912-5.0129 0-6.9253s-5.013-1.9124-6.925 0l-1.732 1.7313 6.926 6.9253z" fill="#ffd9ab" stroke="#3c5d87" stroke-linejoin="round" stroke-width="1.5"/><path d="m82.563 80.3477 29.939-29.9387" stroke="#3c5d87" stroke-width="1.5"/><path d="m74.0307 89.5472c-.4255.2035-.8703-.2413-.6668-.6668l5.737-11.9954 6.9252 6.9253z" fill="#ffd9ab" stroke="#3c5d87" stroke-linejoin="round" stroke-width="1.5"/><path d="m74.0944 89.4896c-.4298.2149-.8857-.241-.6708-.6708l1.9379-3.8759 2.6088 2.6088z" fill="#3c5d87"/><rect fill="#3c5d87" height="49.6876" opacity=".13" rx="2" transform="matrix(-.70710678 -.70710678 .70710678 -.70710678 86.997901 210.99671)" width="5.70581" x="87.1978" y="87.4805"/></g></svg>