<svg fill="none" height="96" viewBox="0 0 144 96" width="144" xmlns="http://www.w3.org/2000/svg" xmlns:xlink="http://www.w3.org/1999/xlink"><clipPath id="a"><path d="m0 0h144v96h-144z"/></clipPath><g clip-path="url(#a)"><rect fill="#ffd9ab" height="65.8199" opacity=".4" rx="17.4904" transform="matrix(-.94943644 .31395931 -.31395931 -.94943644 248.815548 101.989527)" width="65.8199" x="116.195" y="71.0308"/><rect fill="#ffd9ab" height="13.8493" opacity=".45" rx="3.96001" transform="matrix(-.61758511 .78650406 -.78650406 -.61758511 85.811808 -16.617114)" width="13.8493" x="46.9457" y="12.5532"/><rect fill="#ffd9ab" height="6.1394" opacity=".5" rx="1.75547" transform="matrix(.3832 .923665 .923665 -.3832 29.0396 69.8901)" width="6.1394"/><rect fill="#ffd9ab" height="4.1394" opacity=".5" rx="1" transform="matrix(.3832 .923665 .923665 -.3832 110.038 27.125)" width="4.1394"/><rect fill="#ffd9ab" height="6.1394" opacity=".5" rx="1.75547" transform="matrix(.31091531 .95043762 -.95043762 .31091531 156.749553 -47.123615)" width="6.1394" x="110.873" y="84.5386"/><rect fill="#ffd9ab" height="8.7217" opacity=".5" rx="2.49384" transform="matrix(-.184328 .982865 .982865 .184328 103.646 4.53857)" width="8.7217"/><path d="m51.0001 90.5385c0-3.0588 2.4797-5.5385 5.5385-5.5385h30.9231c3.0588 0 5.5384 2.4797 5.5384 5.5385 0 .2549-.2066.4615-.4615.4615h-41.0769c-.2549 0-.4616-.2066-.4616-.4615z" fill="#fff"/><path d="m51.0001 90.5385c0-3.0588 2.4797-5.5385 5.5385-5.5385h30.9231c3.0588 0 5.5384 2.4797 5.5384 5.5385 0 .2549-.2066.4615-.4615.4615h-41.0769c-.2549 0-.4616-.2066-.4616-.4615z" fill="#3c5d87" fill-opacity=".16"/><path d="m51.0001 90.5385c0-3.0588 2.4797-5.5385 5.5385-5.5385h30.9231c3.0588 0 5.5384 2.4797 5.5384 5.5385 0 .2549-.2066.4615-.4615.4615h-41.0769c-.2549 0-.4616-.2066-.4616-.4615z" stroke="#3c5d87" stroke-width="1.5"/><path d="m56 48h-1.1299c-.5442 0-.8164 0-1.0337.0811-.3494.1303-.625.4059-.7553.7553-.0811.2173-.0811.4895-.0811 1.0337v4.2728c0 2.7868 0 4.1802.1732 5.3476 1.0341 6.9713 6.5078 12.4451 13.4791 13.4792 1.1675.1731 2.5609.1731 5.3477.1731m16-25.1428h1.1299c.5442 0 .8164 0 1.0337.0811.3494.1303.625.4059.7553.7553.0811.2173.0811.4895.0811 1.0337v4.2727c0 2.7869 0 4.1803-.1732 5.3478-1.0341 6.9712-6.5078 12.445-13.4791 13.4791-1.1675.1731-2.5609.1731-5.3477.1731m0 0v11.8572" stroke="#3c5d87" stroke-linecap="round" stroke-width="1.5"/><rect fill="#3c5d87" height="6.85714" opacity=".12" rx="2.57143" width="34.2857" x="62.5714" y="87.7144"/><path d="m59.0001 36c0-2.7891 0-4.1836.2763-5.3345.8779-3.6564 3.7328-6.5114 7.3893-7.3892 1.1508-.2763 2.5454-.2763 5.3344-.2763 2.7891 0 4.1836 0 5.3345.2763 3.6565.8778 6.5114 3.7328 7.3892 7.3892.2763 1.1509.2763 2.5454.2763 5.3345v9 9c0 2.7891 0 4.1836-.2763 5.3345-.8778 3.6564-3.7327 6.5114-7.3892 7.3892-1.1509.2763-2.5454.2763-5.3345.2763-2.789 0-4.1836 0-5.3344-.2763-3.6565-.8778-6.5114-3.7328-7.3893-7.3892-.2763-1.1509-.2763-2.5454-.2763-5.3345v-9z" fill="#fff" stroke="#3c5d87" stroke-width="1.5"/><path d="m69.0001 35c0-1.8599 0-2.7899.2045-3.5529.5548-2.0706 2.1721-3.6879 4.2426-4.2427.763-.2044 1.693-.2044 3.5529-.2044 1.86 0 2.7899 0 3.5529.2044 2.0706.5548 3.6879 2.1721 4.2427 4.2427.2044.763.2044 1.693.2044 3.5529v12 10c0 5.5228-4.4771 10-10 10-3.3137 0-6-2.6863-6-6v-14z" fill="#3c5d87" opacity=".09"/><path d="m59.0001 36c0-2.7891 0-4.1836.2763-5.3345.8779-3.6564 3.7328-6.5114 7.3893-7.3892 1.1508-.2763 2.5454-.2763 5.3344-.2763 2.7891 0 4.1836 0 5.3345.2763 3.6565.8778 6.5114 3.7328 7.3892 7.3892.2763 1.1509.2763 2.5454.2763 5.3345v9 9c0 2.7891 0 4.1836-.2763 5.3345-.8778 3.6564-3.7327 6.5114-7.3892 7.3892-1.1509.2763-2.5454.2763-5.3345.2763-2.789 0-4.1836 0-5.3344-.2763-3.6565-.8778-6.5114-3.7328-7.3893-7.3892-.2763-1.1509-.2763-2.5454-.2763-5.3345v-9z" stroke="#3c5d87" stroke-width="1.5"/><g stroke-linecap="round"><path d="m83.1429 43.1431v12c0 1.5925 0 2.3888-.1055 3.0551-.5809 3.6677-3.4574 6.5442-7.125 7.1251-.6663.1055-1.4626.1055-3.0552.1055h-1.7143" opacity=".12" stroke="#3c5d87" stroke-width="7.71429"/><path d="m62.9911 38.356v-4.9284c0-3.866 3.134-7 7-7h.7232" opacity=".5" stroke="#ffc800" stroke-width="1.5"/><path d="m68.9999 34h16" stroke="#3c5d87" stroke-linejoin="round" stroke-width="1.5"/><path d="m67.9999 41h17" stroke="#3c5d87" stroke-linejoin="round" stroke-width="1.5"/><path d="m67.9999 48h1.5m15.5 0h-11.5" stroke="#3c5d87" stroke-linejoin="round" stroke-width="1.5"/><path d="m69.9999 55h11.5" stroke="#3c5d87" stroke-linejoin="round" stroke-width="1.5"/><path d="m94.8219 42.5249c2.8464-8.409.9184-18.0778-5.7839-24.7801-9.4089-9.40891-24.6637-9.40891-34.0726 0-6.7023 6.7023-8.6303 16.3711-5.7839 24.7801" opacity=".3" stroke="#ff9600" stroke-width="1.71429"/><path d="m101.915 45.7429c4.235-11.3583 1.787-24.6427-7.3445-33.7744-12.4767-12.476711-32.7054-12.476711-45.182 0-9.1318 9.1317-11.58 22.4161-7.3446 33.7744" opacity=".3" stroke="#ff9600" stroke-width="1.71429"/></g></g></svg>