<svg fill="none" height="96" viewBox="0 0 144 96" width="144" xmlns="http://www.w3.org/2000/svg" xmlns:xlink="http://www.w3.org/1999/xlink"><clipPath id="a"><path d="m0 0h144v96h-144z"/></clipPath><g clip-path="url(#a)"><g fill="#ffd9ab"><rect height="65.8199" opacity=".4" rx="17.4904" transform="matrix(-.94943644 .31395931 -.31395931 -.94943644 248.815548 101.989527)" width="65.8199" x="116.195" y="71.0308"/><rect height="13.8493" opacity=".45" rx="3.96001" transform="matrix(-.61758511 .78650406 -.78650406 -.61758511 85.811808 -16.617114)" width="13.8493" x="46.9457" y="12.5532"/><rect height="6.1394" opacity=".5" rx="1.75547" transform="matrix(.3832 .923665 .923665 -.3832 29.0396 69.8901)" width="6.1394"/><rect height="4.1394" opacity=".5" rx="1" transform="matrix(.3832 .923665 .923665 -.3832 110.038 27.125)" width="4.1394"/><rect height="6.1394" opacity=".5" rx="1.75547" transform="matrix(.31091531 .95043762 -.95043762 .31091531 156.749553 -47.123615)" width="6.1394" x="110.873" y="84.5386"/><rect height="8.7217" opacity=".5" rx="2.49384" transform="matrix(-.184328 .982865 .982865 .184328 103.646 4.53857)" width="8.7217"/></g><path d="m27.5 25c0-6.5997 0-9.8995 2.0503-11.9497 2.0502-2.0503 5.35-2.0503 11.9497-2.0503h48c6.5997 0 9.8995 0 11.95 2.0503 2.05 2.0502 2.05 5.35 2.05 11.9497v32c0 6.5997 0 9.8995-2.05 11.9497-2.0505 2.0503-5.3503 2.0503-11.95 2.0503h-48c-6.5997 0-9.8995 0-11.9497-2.0503-2.0503-2.0502-2.0503-5.35-2.0503-11.9497z" fill="#fff" stroke="#3c5d87" stroke-width="1.5"/><path d="m33.5 25c0-3.7712 0-5.6569 1.1716-6.8284 1.1715-1.1716 3.0572-1.1716 6.8284-1.1716h48c3.7712 0 5.6569 0 6.8284 1.1716 1.1716 1.1715 1.1716 3.0572 1.1716 6.8284v32c0 3.7712 0 5.6569-1.1716 6.8284-1.1715 1.1716-3.0572 1.1716-6.8284 1.1716h-48c-3.7712 0-5.6569 0-6.8284-1.1716-1.1716-1.1715-1.1716-3.0572-1.1716-6.8284z" fill="#3c5d87" fill-opacity=".04"/><path d="m33.5 25c0-3.7712 0-5.6569 1.1716-6.8284 1.1715-1.1716 3.0572-1.1716 6.8284-1.1716h48c3.7712 0 5.6569 0 6.8284 1.1716 1.1716 1.1715 1.1716 3.0572 1.1716 6.8284v32c0 3.7712 0 5.6569-1.1716 6.8284-1.1715 1.1716-3.0572 1.1716-6.8284 1.1716h-48c-3.7712 0-5.6569 0-6.8284-1.1716-1.1716-1.1715-1.1716-3.0572-1.1716-6.8284z" stroke="#3c5d87" stroke-width="1.6"/><path d="m33.5 54 9.6987-6.4658c1.856-1.2373 2.784-1.856 3.8432-1.9293 1.0591-.0734 2.0635.4115 4.0724 1.3813l4.8991 2.3651c2.6392 1.2741 3.9588 1.9111 5.2813 1.6415s2.2874-1.3724 4.2173-3.5779l4.8816-5.579c2.4135-2.7583 3.6203-4.1375 5.2353-4.2705 1.615-.1329 3.0311 1.0303 5.8632 3.3567l3.7784 3.1037c2.0473 1.6817 3.0709 2.5225 4.3036 2.6308s2.3873-.5411 4.6964-1.84l3.2295-1.8166v14c0 3.7712 0 5.6569-1.1716 6.8284-1.1715 1.1716-3.0572 1.1716-6.8284 1.1716h-48c-3.7712 0-5.6569 0-6.8284-1.1716-1.1716-1.1715-1.1716-3.0572-1.1716-6.8284z" fill="#3c5d87" fill-opacity=".1" stroke="#3c5d87" stroke-width="1.5"/><circle cx="51.5" cy="31" fill="#ffd9ab" fill-opacity=".4" r="6" stroke="#3c5d87" stroke-width="1.5"/><rect fill="#3c5d87" height="8" opacity=".15" rx="4" width="60" x="35.5" y="67.75"/><path d="m27.5 25c0-6.5997 0-9.8995 2.0503-11.9497 2.0502-2.0503 5.35-2.0503 11.9497-2.0503h48c6.5997 0 9.8995 0 11.95 2.0503 2.05 2.0502 2.05 5.35 2.05 11.9497v32c0 6.5997 0 9.8995-2.05 11.9497-2.0505 2.0503-5.3503 2.0503-11.95 2.0503h-48c-6.5997 0-9.8995 0-11.9497-2.0503-2.0503-2.0502-2.0503-5.35-2.0503-11.9497z" fill="#fff" stroke="#3c5d87" stroke-width="1.5"/><path d="m33.5 25c0-3.7712 0-5.6569 1.1716-6.8284 1.1715-1.1716 3.0572-1.1716 6.8284-1.1716h48c3.7712 0 5.6569 0 6.8284 1.1716 1.1716 1.1715 1.1716 3.0572 1.1716 6.8284v32c0 3.7712 0 5.6569-1.1716 6.8284-1.1715 1.1716-3.0572 1.1716-6.8284 1.1716h-48c-3.7712 0-5.6569 0-6.8284-1.1716-1.1716-1.1715-1.1716-3.0572-1.1716-6.8284z" fill="#3c5d87" fill-opacity=".04"/><path d="m33.5 25c0-3.7712 0-5.6569 1.1716-6.8284 1.1715-1.1716 3.0572-1.1716 6.8284-1.1716h48c3.7712 0 5.6569 0 6.8284 1.1716 1.1716 1.1715 1.1716 3.0572 1.1716 6.8284v32c0 3.7712 0 5.6569-1.1716 6.8284-1.1715 1.1716-3.0572 1.1716-6.8284 1.1716h-48c-3.7712 0-5.6569 0-6.8284-1.1716-1.1716-1.1715-1.1716-3.0572-1.1716-6.8284z" stroke="#3c5d87" stroke-width="1.5"/><path d="m33.5 54 9.6987-6.4658c1.856-1.2373 2.784-1.856 3.8432-1.9293 1.0591-.0734 2.0635.4115 4.0724 1.3813l4.8991 2.3651c2.6392 1.2741 3.9588 1.9111 5.2813 1.6415s2.2874-1.3724 4.2173-3.5779l4.8816-5.579c2.4135-2.7583 3.6203-4.1375 5.2353-4.2705 1.615-.1329 3.0311 1.0303 5.8632 3.3567l3.7784 3.1037c2.0473 1.6817 3.0709 2.5225 4.3036 2.6308s2.3873-.5411 4.6964-1.84l3.2295-1.8166v14c0 3.7712 0 5.6569-1.1716 6.8284-1.1715 1.1716-3.0572 1.1716-6.8284 1.1716h-48c-3.7712 0-5.6569 0-6.8284-1.1716-1.1716-1.1715-1.1716-3.0572-1.1716-6.8284z" fill="#3c5d87" fill-opacity=".1" stroke="#3c5d87" stroke-width="1.5"/><circle cx="51.5" cy="31" fill="#ffd9ab" fill-opacity=".4" r="6" stroke="#3c5d87" stroke-width="1.5"/><rect fill="#3c5d87" height="8" opacity=".15" rx="4" width="60" x="35.5" y="67.75"/><path d="m82.3379 89.0729c-1.6314.8529-2.4471 1.2794-2.9526.8955-.5056-.384-.3137-1.2842.0699-3.0847l.7206-3.3818c.1778-.8346.2667-1.2519.5069-1.5895.2402-.3375.6053-.5583 1.3355-.9998l16.8669-10.1989c2.6899-1.6264 4.0349-2.4396 5.0519-1.8658 1.018.5739 1.018 2.1455 1.018 5.2887v.6891c0 1.1797 0 1.7696-.289 2.2472-.29.4776-.812.7509-1.858 1.2975z" fill="#3c5d87" opacity=".15"/><path d="m89.0278 84.8091h9.79382v42.3397h-9.79382z" fill="#fff" transform="matrix(-.70710678 -.70710678 .70710678 -.70710678 92.010871 207.730351)"/><path d="m89.0278 84.8091h9.79382v42.3397h-9.79382z" fill="#ffc800" fill-opacity=".4" transform="matrix(-.70710678 -.70710678 .70710678 -.70710678 92.010871 207.730351)"/><path d="m89.0278 84.8091h9.79382v42.3397h-9.79382z" stroke="#3c5d87" stroke-linejoin="round" stroke-width="1.5" transform="matrix(-.70710678 -.70710678 .70710678 -.70710678 92.010871 207.730351)"/><path d="m0 0h9.79382v4.89691h-9.79382z" fill="#fff" stroke="#3c5d87" stroke-linejoin="round" stroke-width="1.5" transform="matrix(-.707107 -.707107 -.707107 .707107 122.428 51.4067)"/><path d="m124.161 49.678c1.912-1.9124 1.912-5.0129 0-6.9253s-5.013-1.9124-6.925 0l-1.732 1.7313 6.926 6.9253z" fill="#ffd9ab" stroke="#3c5d87" stroke-linejoin="round" stroke-width="1.5"/><path d="m85.563 81.3481 29.939-29.9386" stroke="#3c5d87" stroke-width="1.5"/><path d="m77.0307 90.5477c-.4255.2035-.8703-.2413-.6668-.6668l5.737-11.9954 6.9252 6.9253z" fill="#ffd9ab" stroke="#3c5d87" stroke-linejoin="round" stroke-width="1.5"/><path d="m77.0944 90.4901c-.4298.2149-.8857-.241-.6708-.6708l1.9379-3.8759 2.6088 2.6087z" fill="#3c5d87"/><rect fill="#3c5d87" height="49.6876" opacity=".13" rx="2" transform="matrix(-.70710678 -.70710678 .70710678 -.70710678 91.411761 214.825991)" width="5.70581" x="90.1978" y="88.481"/></g></svg>