<svg fill="none" height="96" viewBox="0 0 144 96" width="144" xmlns="http://www.w3.org/2000/svg"><g fill="#ffd9ab"><rect height="65.8199" opacity=".4" rx="17.4904" transform="matrix(-.94943644 .31395931 -.31395931 -.94943644 248.815548 101.989527)" width="65.8199" x="116.195" y="71.0308"/><rect height="13.8493" opacity=".45" rx="3.96001" transform="matrix(-.61758511 .78650406 -.78650406 -.61758511 85.811808 -16.617114)" width="13.8493" x="46.9457" y="12.5532"/><rect height="6.1394" opacity=".5" rx="1.75547" transform="matrix(.3832 .923665 .923665 -.3832 29.0396 69.8901)" width="6.1394"/><rect height="4.1394" opacity=".5" rx="1" transform="matrix(.3832 .923665 .923665 -.3832 110.038 27.125)" width="4.1394"/><rect height="6.1394" opacity=".5" rx="1.75547" transform="matrix(.31091531 .95043762 -.95043762 .31091531 156.749553 -47.123615)" width="6.1394" x="110.873" y="84.5386"/><rect height="8.7217" opacity=".5" rx="2.49384" transform="matrix(-.184328 .982865 .982865 .184328 103.646 4.53857)" width="8.7217"/><rect height="36.484" opacity=".4" rx="9.99812" transform="matrix(.31492854 .94911538 -.94911538 .31492854 111.449469 -73.873723)" width="36.484" x="106.898" y="40.2656"/><rect height="8.3957" opacity=".4" rx="2.40062" transform="matrix(-.38319936 .92366566 -.92366566 -.38319936 151.426434 -19.309154)" width="8.3957" x="82.1603" y="40.9048"/><rect height="3.83746" opacity=".4" rx="1.09726" transform="matrix(.3832 .923665 .923665 -.3832 111.166 81.1372)" width="3.83746"/><rect height="3.83746" opacity=".4" rx="1.09726" transform="matrix(-.184328 .982865 .982865 .184328 114.141 39.9341)" width="3.83746"/></g><path d="m27.5 25c0-6.5997 0-9.8995 2.0503-11.9497 2.0502-2.0503 5.35-2.0503 11.9497-2.0503h48c6.5997 0 9.8995 0 11.95 2.0503 2.05 2.0502 2.05 5.35 2.05 11.9497v32c0 6.5997 0 9.8995-2.05 11.9497-2.0505 2.0503-5.3503 2.0503-11.95 2.0503h-48c-6.5997 0-9.8995 0-11.9497-2.0503-2.0503-2.0502-2.0503-5.35-2.0503-11.9497z" fill="#fff" stroke="#3c5d87" stroke-width="1.5"/><path d="m33.5 25c0-3.7712 0-5.6569 1.1716-6.8284 1.1715-1.1716 3.0572-1.1716 6.8284-1.1716h48c3.7712 0 5.6569 0 6.8284 1.1716 1.1716 1.1715 1.1716 3.0572 1.1716 6.8284v32c0 3.7712 0 5.6569-1.1716 6.8284-1.1715 1.1716-3.0572 1.1716-6.8284 1.1716h-48c-3.7712 0-5.6569 0-6.8284-1.1716-1.1716-1.1715-1.1716-3.0572-1.1716-6.8284z" fill="#3c5d87" fill-opacity=".04"/><path d="m33.5 25c0-3.7712 0-5.6569 1.1716-6.8284 1.1715-1.1716 3.0572-1.1716 6.8284-1.1716h48c3.7712 0 5.6569 0 6.8284 1.1716 1.1716 1.1715 1.1716 3.0572 1.1716 6.8284v32c0 3.7712 0 5.6569-1.1716 6.8284-1.1715 1.1716-3.0572 1.1716-6.8284 1.1716h-48c-3.7712 0-5.6569 0-6.8284-1.1716-1.1716-1.1715-1.1716-3.0572-1.1716-6.8284z" stroke="#3c5d87" stroke-width="1.6"/><path d="m33.5 54 9.6987-6.4658c1.856-1.2373 2.784-1.856 3.8432-1.9293 1.0591-.0734 2.0635.4115 4.0724 1.3813l4.8991 2.3651c2.6392 1.2741 3.9588 1.9111 5.2813 1.6415s2.2874-1.3724 4.2173-3.5779l4.8816-5.579c2.4135-2.7583 3.6203-4.1375 5.2353-4.2705 1.615-.1329 3.0311 1.0303 5.8632 3.3567l3.7784 3.1037c2.0473 1.6817 3.0709 2.5225 4.3036 2.6308s2.3873-.5411 4.6964-1.84l3.2295-1.8166v14c0 3.7712 0 5.6569-1.1716 6.8284-1.1715 1.1716-3.0572 1.1716-6.8284 1.1716h-48c-3.7712 0-5.6569 0-6.8284-1.1716-1.1716-1.1715-1.1716-3.0572-1.1716-6.8284z" fill="#3c5d87" fill-opacity=".1" stroke="#3c5d87" stroke-width="1.5"/><circle cx="51.5" cy="31" fill="#ffd9ab" fill-opacity=".4" r="6" stroke="#3c5d87" stroke-width="1.5"/><rect fill="#3c5d87" height="8" opacity=".15" rx="4" width="60" x="35.5" y="67.75"/><path d="m27.5 25c0-6.5997 0-9.8995 2.0503-11.9497 2.0502-2.0503 5.35-2.0503 11.9497-2.0503h48c6.5997 0 9.8995 0 11.95 2.0503 2.05 2.0502 2.05 5.35 2.05 11.9497v32c0 6.5997 0 9.8995-2.05 11.9497-2.0505 2.0503-5.3503 2.0503-11.95 2.0503h-48c-6.5997 0-9.8995 0-11.9497-2.0503-2.0503-2.0502-2.0503-5.35-2.0503-11.9497z" fill="#fff" stroke="#3c5d87" stroke-width="1.5"/><path d="m33.5 25c0-3.7712 0-5.6569 1.1716-6.8284 1.1715-1.1716 3.0572-1.1716 6.8284-1.1716h48c3.7712 0 5.6569 0 6.8284 1.1716 1.1716 1.1715 1.1716 3.0572 1.1716 6.8284v32c0 3.7712 0 5.6569-1.1716 6.8284-1.1715 1.1716-3.0572 1.1716-6.8284 1.1716h-48c-3.7712 0-5.6569 0-6.8284-1.1716-1.1716-1.1715-1.1716-3.0572-1.1716-6.8284z" fill="#3c5d87" fill-opacity=".04"/><path d="m33.5 25c0-3.7712 0-5.6569 1.1716-6.8284 1.1715-1.1716 3.0572-1.1716 6.8284-1.1716h48c3.7712 0 5.6569 0 6.8284 1.1716 1.1716 1.1715 1.1716 3.0572 1.1716 6.8284v32c0 3.7712 0 5.6569-1.1716 6.8284-1.1715 1.1716-3.0572 1.1716-6.8284 1.1716h-48c-3.7712 0-5.6569 0-6.8284-1.1716-1.1716-1.1715-1.1716-3.0572-1.1716-6.8284z" stroke="#3c5d87" stroke-width="1.5"/><path d="m33.5 54 9.6987-6.4658c1.856-1.2373 2.784-1.856 3.8432-1.9293 1.0591-.0734 2.0635.4115 4.0724 1.3813l4.8991 2.3651c2.6392 1.2741 3.9588 1.9111 5.2813 1.6415s2.2874-1.3724 4.2173-3.5779l4.8816-5.579c2.4135-2.7583 3.6203-4.1375 5.2353-4.2705 1.615-.1329 3.0311 1.0303 5.8632 3.3567l3.7784 3.1037c2.0473 1.6817 3.0709 2.5225 4.3036 2.6308s2.3873-.5411 4.6964-1.84l3.2295-1.8166v14c0 3.7712 0 5.6569-1.1716 6.8284-1.1715 1.1716-3.0572 1.1716-6.8284 1.1716h-48c-3.7712 0-5.6569 0-6.8284-1.1716-1.1716-1.1715-1.1716-3.0572-1.1716-6.8284z" fill="#3c5d87" fill-opacity=".1" stroke="#3c5d87" stroke-width="1.5"/><circle cx="51.5" cy="31" fill="#ffd9ab" fill-opacity=".4" r="6" stroke="#3c5d87" stroke-width="1.5"/><rect fill="#3c5d87" height="8" opacity=".15" rx="4" width="60" x="35.5" y="67.75"/><path clip-rule="evenodd" d="m76.6716 49.1716c-1.1716 1.1715-1.1716 3.0572-1.1716 6.8284v10c0 1.1698 0 2.1581.035 3h-.035v9.4822c0 1.1137 1.3464 1.6714 2.1339.8839l5.3662-5.3662c.1629.0001.3295.0001.4999.0001h24c3.771 0 5.657 0 6.828-1.1716 1.172-1.1715 1.172-3.0572 1.172-6.8284v-10c0-3.7712 0-5.6569-1.172-6.8284-1.171-1.1716-3.057-1.1716-6.828-1.1716h-24c-3.7712 0-5.6569 0-6.8284 1.1716z" fill="#fff" fill-rule="evenodd"/><path d="m75.535 69v.75h.7818l-.0325-.7811zm-.035 0v-.75h-.75v.75zm2.1339 10.3661.5303.5304zm5.3662-5.3662.0005-.75-.3109-.0002-.2199.2199zm-6.7501-17.9999c0-1.9068.0016-3.2615.1398-4.2892.1352-1.006.3889-1.5857.8121-2.0089l-1.0607-1.0607c-.7483.7484-1.0804 1.6974-1.2381 2.8698-.1547 1.1508-.1531 2.6246-.1531 4.489zm0 10v-10h-1.5v10zm.0343 2.9689c-.0342-.823-.0343-1.7941-.0343-2.9689h-1.5c0 1.1647-.0001 2.1703.0356 3.0311zm-.7493-.7189h-.035v1.5h.035zm-.785.75v9.4822h1.5v-9.4822zm0 9.4822c0 1.7819 2.1543 2.6742 3.4142 1.4143l-1.0606-1.0607c-.315.315-.8536.0919-.8536-.3536zm3.4142 1.4143 5.3662-5.3663-1.0606-1.0606-5.3662 5.3662zm5.3358-6.6465c-.1705 0-.3368 0-.4994-.0001l-.001 1.5c.1632.0001.33.0001.5004.0001zm24 0h-24v1.5h24zm6.298-.9519c-.423.4232-1.003.6769-2.009.8121-1.028.1382-2.382.1398-4.289.1398v1.5c1.864 0 3.338.0016 4.489-.1531 1.172-.1577 2.121-.4898 2.87-1.2381zm.952-6.2981c0 1.9068-.002 3.2615-.14 4.2892-.135 1.006-.389 1.5857-.812 2.0089l1.061 1.0607c.748-.7484 1.08-1.6974 1.238-2.8698.155-1.1508.153-2.6246.153-4.489zm0-10v10h1.5v-10zm-.952-6.2981c.423.4232.677 1.0029.812 2.0089.138 1.0277.14 2.3824.14 4.2892h1.5c0-1.8644.002-3.3382-.153-4.489-.158-1.1724-.49-2.1214-1.238-2.8698zm-6.298-.9519c1.907 0 3.261.0016 4.289.1398 1.006.1352 1.586.3889 2.009.8121l1.061-1.0607c-.749-.7483-1.698-1.0804-2.87-1.2381-1.151-.1547-2.625-.1531-4.489-.1531zm-24 0h24v-1.5h-24zm-6.2981.9519c.4232-.4232 1.0029-.6769 2.0089-.8121 1.0277-.1382 2.3824-.1398 4.2892-.1398v-1.5c-1.8644 0-3.3382-.0016-4.489.1531-1.1724.1577-2.1214.4898-2.8698 1.2381z" fill="#3c5d87"/><path d="m82 54.6646h13.3333" stroke="#ffd9ab" stroke-linecap="round" stroke-width="1.5"/><path d="m98.667 54.6646h1.667" stroke="#ffd9ab" stroke-linecap="round" stroke-width="1.5"/><path d="m103.668 54.6646h3.333" stroke="#ffd9ab" stroke-linecap="round" stroke-width="1.5"/><path d="m82 58.8301h17.0833" stroke="#ffd9ab" stroke-linecap="round" stroke-width="1.5"/><path d="m102.417 58.8301h6.25" stroke="#ffd9ab" stroke-linecap="round" stroke-width="1.5"/><path d="m82 62.9985h7.5" stroke="#ffd9ab" stroke-linecap="round" stroke-width="1.5"/><path d="m92.9551 63.0469h5.8333" stroke="#ffd9ab" stroke-linecap="round" stroke-width="1.5"/><path d="m101.999 62.9985h1.667" stroke="#ffd9ab" stroke-linecap="round" stroke-width="1.5"/><path d="m82 67.1646h10.4167" stroke="#ffd9ab" stroke-linecap="round" stroke-width="1.5"/><path d="m95.7507 67.1646h5.4163" stroke="#ffd9ab" stroke-linecap="round" stroke-width="1.5"/></svg>