<svg fill="none" height="96" viewBox="0 0 144 96" width="144" xmlns="http://www.w3.org/2000/svg" xmlns:xlink="http://www.w3.org/1999/xlink"><clipPath id="a"><path d="m0 0h144v96h-144z"/></clipPath><g clip-path="url(#a)"><rect fill="#ffd9ab" height="65.8199" opacity=".4" rx="17.4904" transform="matrix(-.94943644 .31395931 -.31395931 -.94943644 230.230221 116.982719)" width="65.8199" x="105.695" y="77.0308"/><rect fill="#ffd9ab" height="8.7217" opacity=".5" rx="2.49384" transform="matrix(-.184328 .982865 .982865 .184328 97.6077 6.53906)" width="8.7217"/><rect fill="#ffd9ab" height="13.8493" opacity=".45" rx="3.96001" transform="matrix(-.61758511 .78650406 -.78650406 -.61758511 73.546582 1.347498)" width="13.8493" x="36.4457" y="18.5537"/><rect fill="#ffd9ab" height="6.1394" opacity=".5" rx="1.75547" transform="matrix(.3832 .923665 .923665 -.3832 18.5396 75.8906)" width="6.1394"/><rect fill="#ffd9ab" height="4.1394" opacity=".5" rx="1" transform="matrix(.3832 .923665 .923665 -.3832 107.538 22.125)" width="4.1394"/><rect fill="#ffd9ab" height="36.484" opacity=".4" rx="9.99812" transform="matrix(.31492854 .94911538 -.94911538 .31492854 128.134348 -76.988378)" width="36.484" x="117.398" y="50.2661"/><rect fill="#ffd9ab" height="3.83746" opacity=".4" rx="1.09726" transform="matrix(.3832 .923665 .923665 -.3832 121.666 91.1377)" width="3.83746"/><rect fill="#ffd9ab" height="3.83746" opacity=".4" rx="1.09726" transform="matrix(-.184328 .982865 .982865 .184328 124.641 49.9346)" width="3.83746"/><path d="m69.7051 18.3967c-6.2143 4.1917-20.111 16.7793-20.111 16.7793h-10.2121c-4.2038 0-6.3819 6.8064-6.3819 12.4517 0 4.6309 2.1781 13.407 6.3819 13.407h10.2121s13.5946 11.5911 19.9201 15.9173c1.4832 1.0692 2.9623.7151 2.8607-1.6759v-55.4575c0-1.0692-1.1893-2.5323-2.6698-1.4219z" style="fill-rule:evenodd;clip-rule:evenodd;fill:#fff;stroke:#3c5d87;stroke-width:1.5;stroke-linejoin:round"/><path d="m66.0001 27.1401c-3.1456 2.4683-6.8857 5.6512-10 8.3618" opacity=".5" stroke="#ffc800" stroke-linecap="round" stroke-width="1.5"/><path d="m86.5676 47.964c0 1.9271-1.5642 3.4904-3.4923 3.4904-1.9282 0-3.4924-1.5633-3.4924-3.4904 0-1.927 1.5642-3.4904 3.4924-3.4904 1.9281 0 3.4923 1.5634 3.4923 3.4904" stroke="#3c5d87" stroke-linecap="round" stroke-width="1.5"/><path d="m81.5336 61.9254c7.7153 0 13.9681-6.2519 13.9681-13.9615 0-7.7095-6.2528-13.9615-13.9681-13.9615" stroke="#3c5d87" stroke-linecap="round" stroke-width="1.5"/><path d="m81.5336 75.4148c15.1698 0 27.4664-12.2897 27.4664-27.4508s-12.2966-27.4508-27.4664-27.4508" stroke="#3c5d87" stroke-linecap="round" stroke-width="1.5"/><path clip-rule="evenodd" d="m49.0001 61.0345v-25.8587h-9.6181c-4.2038 0-6.3819 6.8064-6.3819 12.4517 0 4.6309 2.1781 13.407 6.3819 13.407z" fill="#ffd9ab" fill-rule="evenodd"/><path d="m49.0001 61.0345v.75h.75v-.75zm0-25.8587h.75v-.75h-.75zm.75 25.8587v-25.8587h-1.5v25.8587zm-.75-26.6087h-9.6181v1.5h9.6181zm-9.6181 0c-2.5682 0-4.3513 2.0763-5.4527 4.5542-1.1216 2.5234-1.6792 5.7445-1.6792 8.6475h1.5c0-2.7423.5315-5.747 1.5499-8.0382 1.0386-2.3366 2.4464-3.6635 4.082-3.6635zm-7.1319 13.2017c0 2.4047.5605 5.8482 1.6648 8.7101.5521 1.4307 1.258 2.7635 2.1358 3.7514.8809.9913 1.9933 1.6955 3.3313 1.6955v-1.5c-.7639 0-1.5001-.3929-2.21-1.1918-.7129-.8023-1.3397-1.953-1.8576-3.2951-1.0357-2.6839-1.5643-5.9439-1.5643-8.1701zm7.1319 14.157h9.6181v-1.5h-9.6181z" fill="#3c5d87"/><path clip-rule="evenodd" d="m43.7732 53c-5.5363 0-8.3044 0-8.5616 3.7244-.2572 3.7245 1.0822 3.9103 3.761 4.2821.1342.0186.2707.0282.4093.0282h7.2646c1.4556 0 2.1834 0 2.8469.2417.6634.2417 1.2258.7144 2.3507 1.6598 4.1315 3.472 12.9363 10.7782 17.67 14.0158 1.4832 1.0692 2.9623.7151 2.8607-1.6759v-14.2761c0-3.7712 0-5.6569-1.1716-6.8284-1.1716-1.1716-3.0572-1.1716-6.8284-1.1716h-14.3748z" fill="#3c5d87" fill-rule="evenodd" opacity=".09"/><path d="m39.382 59.0347h3.8959c3.1123 0 4.6684 0 6.0803.5101 1.4118.5102 2.6307 1.5235 5.0686 3.55 4.5364 3.7709 11.191 9.1923 15.0874 11.8572" opacity=".12" stroke="#3c5d87" stroke-linecap="round" stroke-width="7.71429"/><path clip-rule="evenodd" d="m87.1716 59.1716c-1.1716 1.1715-1.1716 3.0572-1.1716 6.8284v10c0 1.1698 0 2.1581.035 3h-.035v9.4822c0 1.1137 1.3464 1.6714 2.1339.8839l5.3662-5.3662c.1629.0001.3295.0001.4999.0001h24c3.771 0 5.657 0 6.828-1.1716 1.172-1.1715 1.172-3.0572 1.172-6.8284v-10c0-3.7712 0-5.6569-1.172-6.8284-1.171-1.1716-3.057-1.1716-6.828-1.1716h-24c-3.7712 0-5.6569 0-6.8284 1.1716z" fill="#fff" fill-rule="evenodd"/><path d="m86.035 79v.75h.7818l-.0325-.7811zm-.035 0v-.75h-.75v.75zm2.1339 10.3661.5303.5304zm5.3662-5.3662.0005-.75-.3109-.0002-.2199.2199zm-6.7501-17.9999c0-1.9068.0016-3.2615.1398-4.2892.1352-1.006.3889-1.5857.8121-2.0089l-1.0607-1.0607c-.7483.7484-1.0804 1.6974-1.2381 2.8698-.1547 1.1508-.1531 2.6246-.1531 4.489zm0 10v-10h-1.5v10zm.0343 2.9689c-.0342-.823-.0343-1.7941-.0343-2.9689h-1.5c0 1.1647-.0001 2.1703.0356 3.0311zm-.7493-.7189h-.035v1.5h.035zm-.785.75v9.4822h1.5v-9.4822zm0 9.4822c0 1.7819 2.1543 2.6742 3.4142 1.4143l-1.0606-1.0607c-.315.315-.8536.0919-.8536-.3536zm3.4142 1.4143 5.3662-5.3663-1.0606-1.0606-5.3662 5.3662zm5.3358-6.6465c-.1705 0-.3368 0-.4994-.0001l-.001 1.5c.1632.0001.33.0001.5004.0001zm24 0h-24v1.5h24zm6.298-.9519c-.423.4232-1.003.6769-2.009.8121-1.028.1382-2.382.1398-4.289.1398v1.5c1.864 0 3.338.0016 4.489-.1531 1.172-.1577 2.121-.4898 2.87-1.2381zm.952-6.2981c0 1.9068-.002 3.2615-.14 4.2892-.135 1.006-.389 1.5857-.812 2.0089l1.061 1.0607c.748-.7484 1.08-1.6974 1.238-2.8698.155-1.1508.153-2.6246.153-4.489zm0-10v10h1.5v-10zm-.952-6.2981c.423.4232.677 1.0029.812 2.0089.138 1.0277.14 2.3824.14 4.2892h1.5c0-1.8644.002-3.3382-.153-4.489-.158-1.1724-.49-2.1214-1.238-2.8698zm-6.298-.9519c1.907 0 3.261.0016 4.289.1398 1.006.1352 1.586.3889 2.009.8121l1.061-1.0607c-.749-.7483-1.698-1.0804-2.87-1.2381-1.151-.1547-2.625-.1531-4.489-.1531zm-24 0h24v-1.5h-24zm-6.2981.9519c.4232-.4232 1.0029-.6769 2.0089-.8121 1.0277-.1382 2.3824-.1398 4.2892-.1398v-1.5c-1.8644 0-3.3382-.0016-4.489.1531-1.1724.1577-2.1214.4898-2.8698 1.2381z" fill="#3c5d87"/><rect fill="#3c5d87" height="6" opacity=".1" rx="1.68864" width="27" x="96" y="81"/><g stroke-width="1.5"><path d="m92.5 64.6646h13.333" stroke="#ffd9ab" stroke-linecap="round"/><path d="m109.167 64.6646h1.667" stroke="#ffd9ab" stroke-linecap="round"/><path d="m114.168 64.6646h3.333" stroke="#ffd9ab" stroke-linecap="round"/><path d="m92.5 68.8301h17.083" stroke="#ffd9ab" stroke-linecap="round"/><path d="m112.917 68.8301h6.25" stroke="#ffd9ab" stroke-linecap="round"/><path d="m92.5 72.9985h7.5" stroke="#ffd9ab" stroke-linecap="round"/><path d="m103.455 73.0469h5.833" stroke="#ffd9ab" stroke-linecap="round"/><path d="m112.499 72.9985h1.667" stroke="#ffd9ab" stroke-linecap="round"/><path d="m92.5 77.1646h10.417" stroke="#ffd9ab" stroke-linecap="round"/><path d="m106.251 77.1646h5.416" stroke="#ffd9ab" stroke-linecap="round"/></g></g></svg>